<?xml version="1.0" encoding="utf-8" standalone="no"?>
<!DOCTYPE svg PUBLIC "-//W3C//DTD SVG 1.1//EN"
  "http://www.w3.org/Graphics/SVG/1.1/DTD/svg11.dtd">
<svg xmlns:xlink="http://www.w3.org/1999/xlink" width="864pt" height="360pt" viewBox="0 0 864 360" xmlns="http://www.w3.org/2000/svg" version="1.1">
 <metadata>
  <rdf:RDF xmlns:dc="http://purl.org/dc/elements/1.1/" xmlns:cc="http://creativecommons.org/ns#" xmlns:rdf="http://www.w3.org/1999/02/22-rdf-syntax-ns#">
   <cc:Work>
    <dc:type rdf:resource="http://purl.org/dc/dcmitype/StillImage"/>
    <dc:date>2024-03-25T20:04:47.206672</dc:date>
    <dc:format>image/svg+xml</dc:format>
    <dc:creator>
     <cc:Agent>
      <dc:title>Matplotlib v3.8.3, https://matplotlib.org/</dc:title>
     </cc:Agent>
    </dc:creator>
   </cc:Work>
  </rdf:RDF>
 </metadata>
 <defs>
  <style type="text/css">*{stroke-linejoin: round; stroke-linecap: butt}</style>
 </defs>
 <g id="figure_1">
  <g id="patch_1">
   <path d="M 0 360 
L 864 360 
L 864 0 
L 0 0 
L 0 360 
z
" style="fill: none; opacity: 0"/>
  </g>
  <g id="axes_1">
   <g id="patch_2">
    <path d="M 108 320.4 
L 777.6 320.4 
L 777.6 43.2 
L 108 43.2 
L 108 320.4 
z
" style="fill: none; opacity: 0"/>
   </g>
   <g id="matplotlib.axis_1">
    <g id="xtick_1">
     <g id="line2d_1">
      <path d="M 162.785455 320.4 
L 162.785455 43.2 
" clip-path="url(#pec0a8b3ad5)" style="fill: none; stroke-dasharray: 5.12,1.28,0.8,1.28; stroke-dashoffset: 0; stroke: #b0b0b0; stroke-width: 0.8"/>
     </g>
     <g id="line2d_2">
      <defs>
       <path id="m3a8249c954" d="M 0 0 
L 0 3.5 
" style="stroke: #a9a9a9; stroke-width: 0.8"/>
      </defs>
      <g>
       <use xlink:href="#m3a8249c954" x="162.785455" y="320.4" style="fill: #a9a9a9; stroke: #a9a9a9; stroke-width: 0.8"/>
      </g>
     </g>
     <g id="text_1">
      <!-- 2021-09 -->
      <g style="fill: #a9a9a9" transform="translate(141.894048 334.998438) scale(0.1 -0.1)">
       <defs>
        <path id="DejaVuSans-32" d="M 1228 531 
L 3431 531 
L 3431 0 
L 469 0 
L 469 531 
Q 828 903 1448 1529 
Q 2069 2156 2228 2338 
Q 2531 2678 2651 2914 
Q 2772 3150 2772 3378 
Q 2772 3750 2511 3984 
Q 2250 4219 1831 4219 
Q 1534 4219 1204 4116 
Q 875 4013 500 3803 
L 500 4441 
Q 881 4594 1212 4672 
Q 1544 4750 1819 4750 
Q 2544 4750 2975 4387 
Q 3406 4025 3406 3419 
Q 3406 3131 3298 2873 
Q 3191 2616 2906 2266 
Q 2828 2175 2409 1742 
Q 1991 1309 1228 531 
z
" transform="scale(0.015625)"/>
        <path id="DejaVuSans-30" d="M 2034 4250 
Q 1547 4250 1301 3770 
Q 1056 3291 1056 2328 
Q 1056 1369 1301 889 
Q 1547 409 2034 409 
Q 2525 409 2770 889 
Q 3016 1369 3016 2328 
Q 3016 3291 2770 3770 
Q 2525 4250 2034 4250 
z
M 2034 4750 
Q 2819 4750 3233 4129 
Q 3647 3509 3647 2328 
Q 3647 1150 3233 529 
Q 2819 -91 2034 -91 
Q 1250 -91 836 529 
Q 422 1150 422 2328 
Q 422 3509 836 4129 
Q 1250 4750 2034 4750 
z
" transform="scale(0.015625)"/>
        <path id="DejaVuSans-31" d="M 794 531 
L 1825 531 
L 1825 4091 
L 703 3866 
L 703 4441 
L 1819 4666 
L 2450 4666 
L 2450 531 
L 3481 531 
L 3481 0 
L 794 0 
L 794 531 
z
" transform="scale(0.015625)"/>
        <path id="DejaVuSans-2d" d="M 313 2009 
L 1997 2009 
L 1997 1497 
L 313 1497 
L 313 2009 
z
" transform="scale(0.015625)"/>
        <path id="DejaVuSans-39" d="M 703 97 
L 703 672 
Q 941 559 1184 500 
Q 1428 441 1663 441 
Q 2288 441 2617 861 
Q 2947 1281 2994 2138 
Q 2813 1869 2534 1725 
Q 2256 1581 1919 1581 
Q 1219 1581 811 2004 
Q 403 2428 403 3163 
Q 403 3881 828 4315 
Q 1253 4750 1959 4750 
Q 2769 4750 3195 4129 
Q 3622 3509 3622 2328 
Q 3622 1225 3098 567 
Q 2575 -91 1691 -91 
Q 1453 -91 1209 -44 
Q 966 3 703 97 
z
M 1959 2075 
Q 2384 2075 2632 2365 
Q 2881 2656 2881 3163 
Q 2881 3666 2632 3958 
Q 2384 4250 1959 4250 
Q 1534 4250 1286 3958 
Q 1038 3666 1038 3163 
Q 1038 2656 1286 2365 
Q 1534 2075 1959 2075 
z
" transform="scale(0.015625)"/>
       </defs>
       <use xlink:href="#DejaVuSans-32"/>
       <use xlink:href="#DejaVuSans-30" x="63.623047"/>
       <use xlink:href="#DejaVuSans-32" x="127.246094"/>
       <use xlink:href="#DejaVuSans-31" x="190.869141"/>
       <use xlink:href="#DejaVuSans-2d" x="254.492188"/>
       <use xlink:href="#DejaVuSans-30" x="290.576172"/>
       <use xlink:href="#DejaVuSans-39" x="354.199219"/>
      </g>
     </g>
    </g>
    <g id="xtick_2">
     <g id="line2d_3">
      <path d="M 238.954406 320.4 
L 238.954406 43.2 
" clip-path="url(#pec0a8b3ad5)" style="fill: none; stroke-dasharray: 5.12,1.28,0.8,1.28; stroke-dashoffset: 0; stroke: #b0b0b0; stroke-width: 0.8"/>
     </g>
     <g id="line2d_4">
      <g>
       <use xlink:href="#m3a8249c954" x="238.954406" y="320.4" style="fill: #a9a9a9; stroke: #a9a9a9; stroke-width: 0.8"/>
      </g>
     </g>
     <g id="text_2">
      <!-- 2022-01 -->
      <g style="fill: #a9a9a9" transform="translate(218.062999 334.998438) scale(0.1 -0.1)">
       <use xlink:href="#DejaVuSans-32"/>
       <use xlink:href="#DejaVuSans-30" x="63.623047"/>
       <use xlink:href="#DejaVuSans-32" x="127.246094"/>
       <use xlink:href="#DejaVuSans-32" x="190.869141"/>
       <use xlink:href="#DejaVuSans-2d" x="254.492188"/>
       <use xlink:href="#DejaVuSans-30" x="290.576172"/>
       <use xlink:href="#DejaVuSans-31" x="354.199219"/>
      </g>
     </g>
    </g>
    <g id="xtick_3">
     <g id="line2d_5">
      <path d="M 313.874685 320.4 
L 313.874685 43.2 
" clip-path="url(#pec0a8b3ad5)" style="fill: none; stroke-dasharray: 5.12,1.28,0.8,1.28; stroke-dashoffset: 0; stroke: #b0b0b0; stroke-width: 0.8"/>
     </g>
     <g id="line2d_6">
      <g>
       <use xlink:href="#m3a8249c954" x="313.874685" y="320.4" style="fill: #a9a9a9; stroke: #a9a9a9; stroke-width: 0.8"/>
      </g>
     </g>
     <g id="text_3">
      <!-- 2022-05 -->
      <g style="fill: #a9a9a9" transform="translate(292.983279 334.998438) scale(0.1 -0.1)">
       <defs>
        <path id="DejaVuSans-35" d="M 691 4666 
L 3169 4666 
L 3169 4134 
L 1269 4134 
L 1269 2991 
Q 1406 3038 1543 3061 
Q 1681 3084 1819 3084 
Q 2600 3084 3056 2656 
Q 3513 2228 3513 1497 
Q 3513 744 3044 326 
Q 2575 -91 1722 -91 
Q 1428 -91 1123 -41 
Q 819 9 494 109 
L 494 744 
Q 775 591 1075 516 
Q 1375 441 1709 441 
Q 2250 441 2565 725 
Q 2881 1009 2881 1497 
Q 2881 1984 2565 2268 
Q 2250 2553 1709 2553 
Q 1456 2553 1204 2497 
Q 953 2441 691 2322 
L 691 4666 
z
" transform="scale(0.015625)"/>
       </defs>
       <use xlink:href="#DejaVuSans-32"/>
       <use xlink:href="#DejaVuSans-30" x="63.623047"/>
       <use xlink:href="#DejaVuSans-32" x="127.246094"/>
       <use xlink:href="#DejaVuSans-32" x="190.869141"/>
       <use xlink:href="#DejaVuSans-2d" x="254.492188"/>
       <use xlink:href="#DejaVuSans-30" x="290.576172"/>
       <use xlink:href="#DejaVuSans-35" x="354.199219"/>
      </g>
     </g>
    </g>
    <g id="xtick_4">
     <g id="line2d_7">
      <path d="M 390.667972 320.4 
L 390.667972 43.2 
" clip-path="url(#pec0a8b3ad5)" style="fill: none; stroke-dasharray: 5.12,1.28,0.8,1.28; stroke-dashoffset: 0; stroke: #b0b0b0; stroke-width: 0.8"/>
     </g>
     <g id="line2d_8">
      <g>
       <use xlink:href="#m3a8249c954" x="390.667972" y="320.4" style="fill: #a9a9a9; stroke: #a9a9a9; stroke-width: 0.8"/>
      </g>
     </g>
     <g id="text_4">
      <!-- 2022-09 -->
      <g style="fill: #a9a9a9" transform="translate(369.776566 334.998438) scale(0.1 -0.1)">
       <use xlink:href="#DejaVuSans-32"/>
       <use xlink:href="#DejaVuSans-30" x="63.623047"/>
       <use xlink:href="#DejaVuSans-32" x="127.246094"/>
       <use xlink:href="#DejaVuSans-32" x="190.869141"/>
       <use xlink:href="#DejaVuSans-2d" x="254.492188"/>
       <use xlink:href="#DejaVuSans-30" x="290.576172"/>
       <use xlink:href="#DejaVuSans-39" x="354.199219"/>
      </g>
     </g>
    </g>
    <g id="xtick_5">
     <g id="line2d_9">
      <path d="M 466.836923 320.4 
L 466.836923 43.2 
" clip-path="url(#pec0a8b3ad5)" style="fill: none; stroke-dasharray: 5.12,1.28,0.8,1.28; stroke-dashoffset: 0; stroke: #b0b0b0; stroke-width: 0.8"/>
     </g>
     <g id="line2d_10">
      <g>
       <use xlink:href="#m3a8249c954" x="466.836923" y="320.4" style="fill: #a9a9a9; stroke: #a9a9a9; stroke-width: 0.8"/>
      </g>
     </g>
     <g id="text_5">
      <!-- 2023-01 -->
      <g style="fill: #a9a9a9" transform="translate(445.945517 334.998438) scale(0.1 -0.1)">
       <defs>
        <path id="DejaVuSans-33" d="M 2597 2516 
Q 3050 2419 3304 2112 
Q 3559 1806 3559 1356 
Q 3559 666 3084 287 
Q 2609 -91 1734 -91 
Q 1441 -91 1130 -33 
Q 819 25 488 141 
L 488 750 
Q 750 597 1062 519 
Q 1375 441 1716 441 
Q 2309 441 2620 675 
Q 2931 909 2931 1356 
Q 2931 1769 2642 2001 
Q 2353 2234 1838 2234 
L 1294 2234 
L 1294 2753 
L 1863 2753 
Q 2328 2753 2575 2939 
Q 2822 3125 2822 3475 
Q 2822 3834 2567 4026 
Q 2313 4219 1838 4219 
Q 1578 4219 1281 4162 
Q 984 4106 628 3988 
L 628 4550 
Q 988 4650 1302 4700 
Q 1616 4750 1894 4750 
Q 2613 4750 3031 4423 
Q 3450 4097 3450 3541 
Q 3450 3153 3228 2886 
Q 3006 2619 2597 2516 
z
" transform="scale(0.015625)"/>
       </defs>
       <use xlink:href="#DejaVuSans-32"/>
       <use xlink:href="#DejaVuSans-30" x="63.623047"/>
       <use xlink:href="#DejaVuSans-32" x="127.246094"/>
       <use xlink:href="#DejaVuSans-33" x="190.869141"/>
       <use xlink:href="#DejaVuSans-2d" x="254.492188"/>
       <use xlink:href="#DejaVuSans-30" x="290.576172"/>
       <use xlink:href="#DejaVuSans-31" x="354.199219"/>
      </g>
     </g>
    </g>
    <g id="xtick_6">
     <g id="line2d_11">
      <path d="M 541.757203 320.4 
L 541.757203 43.2 
" clip-path="url(#pec0a8b3ad5)" style="fill: none; stroke-dasharray: 5.12,1.28,0.8,1.28; stroke-dashoffset: 0; stroke: #b0b0b0; stroke-width: 0.8"/>
     </g>
     <g id="line2d_12">
      <g>
       <use xlink:href="#m3a8249c954" x="541.757203" y="320.4" style="fill: #a9a9a9; stroke: #a9a9a9; stroke-width: 0.8"/>
      </g>
     </g>
     <g id="text_6">
      <!-- 2023-05 -->
      <g style="fill: #a9a9a9" transform="translate(520.865797 334.998438) scale(0.1 -0.1)">
       <use xlink:href="#DejaVuSans-32"/>
       <use xlink:href="#DejaVuSans-30" x="63.623047"/>
       <use xlink:href="#DejaVuSans-32" x="127.246094"/>
       <use xlink:href="#DejaVuSans-33" x="190.869141"/>
       <use xlink:href="#DejaVuSans-2d" x="254.492188"/>
       <use xlink:href="#DejaVuSans-30" x="290.576172"/>
       <use xlink:href="#DejaVuSans-35" x="354.199219"/>
      </g>
     </g>
    </g>
    <g id="xtick_7">
     <g id="line2d_13">
      <path d="M 618.55049 320.4 
L 618.55049 43.2 
" clip-path="url(#pec0a8b3ad5)" style="fill: none; stroke-dasharray: 5.12,1.28,0.8,1.28; stroke-dashoffset: 0; stroke: #b0b0b0; stroke-width: 0.8"/>
     </g>
     <g id="line2d_14">
      <g>
       <use xlink:href="#m3a8249c954" x="618.55049" y="320.4" style="fill: #a9a9a9; stroke: #a9a9a9; stroke-width: 0.8"/>
      </g>
     </g>
     <g id="text_7">
      <!-- 2023-09 -->
      <g style="fill: #a9a9a9" transform="translate(597.659083 334.998438) scale(0.1 -0.1)">
       <use xlink:href="#DejaVuSans-32"/>
       <use xlink:href="#DejaVuSans-30" x="63.623047"/>
       <use xlink:href="#DejaVuSans-32" x="127.246094"/>
       <use xlink:href="#DejaVuSans-33" x="190.869141"/>
       <use xlink:href="#DejaVuSans-2d" x="254.492188"/>
       <use xlink:href="#DejaVuSans-30" x="290.576172"/>
       <use xlink:href="#DejaVuSans-39" x="354.199219"/>
      </g>
     </g>
    </g>
    <g id="xtick_8">
     <g id="line2d_15">
      <path d="M 694.719441 320.4 
L 694.719441 43.2 
" clip-path="url(#pec0a8b3ad5)" style="fill: none; stroke-dasharray: 5.12,1.28,0.8,1.28; stroke-dashoffset: 0; stroke: #b0b0b0; stroke-width: 0.8"/>
     </g>
     <g id="line2d_16">
      <g>
       <use xlink:href="#m3a8249c954" x="694.719441" y="320.4" style="fill: #a9a9a9; stroke: #a9a9a9; stroke-width: 0.8"/>
      </g>
     </g>
     <g id="text_8">
      <!-- 2024-01 -->
      <g style="fill: #a9a9a9" transform="translate(673.828034 334.998438) scale(0.1 -0.1)">
       <defs>
        <path id="DejaVuSans-34" d="M 2419 4116 
L 825 1625 
L 2419 1625 
L 2419 4116 
z
M 2253 4666 
L 3047 4666 
L 3047 1625 
L 3713 1625 
L 3713 1100 
L 3047 1100 
L 3047 0 
L 2419 0 
L 2419 1100 
L 313 1100 
L 313 1709 
L 2253 4666 
z
" transform="scale(0.015625)"/>
       </defs>
       <use xlink:href="#DejaVuSans-32"/>
       <use xlink:href="#DejaVuSans-30" x="63.623047"/>
       <use xlink:href="#DejaVuSans-32" x="127.246094"/>
       <use xlink:href="#DejaVuSans-34" x="190.869141"/>
       <use xlink:href="#DejaVuSans-2d" x="254.492188"/>
       <use xlink:href="#DejaVuSans-30" x="290.576172"/>
       <use xlink:href="#DejaVuSans-31" x="354.199219"/>
      </g>
     </g>
    </g>
    <g id="xtick_9">
     <g id="line2d_17">
      <path d="M 770.264056 320.4 
L 770.264056 43.2 
" clip-path="url(#pec0a8b3ad5)" style="fill: none; stroke-dasharray: 5.12,1.28,0.8,1.28; stroke-dashoffset: 0; stroke: #b0b0b0; stroke-width: 0.8"/>
     </g>
     <g id="line2d_18">
      <g>
       <use xlink:href="#m3a8249c954" x="770.264056" y="320.4" style="fill: #a9a9a9; stroke: #a9a9a9; stroke-width: 0.8"/>
      </g>
     </g>
     <g id="text_9">
      <!-- 2024-05 -->
      <g style="fill: #a9a9a9" transform="translate(749.37265 334.998438) scale(0.1 -0.1)">
       <use xlink:href="#DejaVuSans-32"/>
       <use xlink:href="#DejaVuSans-30" x="63.623047"/>
       <use xlink:href="#DejaVuSans-32" x="127.246094"/>
       <use xlink:href="#DejaVuSans-34" x="190.869141"/>
       <use xlink:href="#DejaVuSans-2d" x="254.492188"/>
       <use xlink:href="#DejaVuSans-30" x="290.576172"/>
       <use xlink:href="#DejaVuSans-35" x="354.199219"/>
      </g>
     </g>
    </g>
   </g>
   <g id="matplotlib.axis_2">
    <g id="ytick_1">
     <g id="line2d_19">
      <path d="M 108 307.843351 
L 777.6 307.843351 
" clip-path="url(#pec0a8b3ad5)" style="fill: none; stroke-dasharray: 5.12,1.28,0.8,1.28; stroke-dashoffset: 0; stroke: #b0b0b0; stroke-width: 0.8"/>
     </g>
     <g id="line2d_20">
      <defs>
       <path id="meb4a288f3b" d="M 0 0 
L -3.5 0 
" style="stroke: #a9a9a9; stroke-width: 0.8"/>
      </defs>
      <g>
       <use xlink:href="#meb4a288f3b" x="108" y="307.843351" style="fill: #a9a9a9; stroke: #a9a9a9; stroke-width: 0.8"/>
      </g>
     </g>
     <g id="text_10">
      <!-- 0 -->
      <g style="fill: #a9a9a9" transform="translate(94.6375 311.64257) scale(0.1 -0.1)">
       <use xlink:href="#DejaVuSans-30"/>
      </g>
     </g>
    </g>
    <g id="ytick_2">
     <g id="line2d_21">
      <path d="M 108 273.162463 
L 777.6 273.162463 
" clip-path="url(#pec0a8b3ad5)" style="fill: none; stroke-dasharray: 5.12,1.28,0.8,1.28; stroke-dashoffset: 0; stroke: #b0b0b0; stroke-width: 0.8"/>
     </g>
     <g id="line2d_22">
      <g>
       <use xlink:href="#meb4a288f3b" x="108" y="273.162463" style="fill: #a9a9a9; stroke: #a9a9a9; stroke-width: 0.8"/>
      </g>
     </g>
     <g id="text_11">
      <!-- 800 -->
      <g style="fill: #a9a9a9" transform="translate(81.9125 276.961682) scale(0.1 -0.1)">
       <defs>
        <path id="DejaVuSans-38" d="M 2034 2216 
Q 1584 2216 1326 1975 
Q 1069 1734 1069 1313 
Q 1069 891 1326 650 
Q 1584 409 2034 409 
Q 2484 409 2743 651 
Q 3003 894 3003 1313 
Q 3003 1734 2745 1975 
Q 2488 2216 2034 2216 
z
M 1403 2484 
Q 997 2584 770 2862 
Q 544 3141 544 3541 
Q 544 4100 942 4425 
Q 1341 4750 2034 4750 
Q 2731 4750 3128 4425 
Q 3525 4100 3525 3541 
Q 3525 3141 3298 2862 
Q 3072 2584 2669 2484 
Q 3125 2378 3379 2068 
Q 3634 1759 3634 1313 
Q 3634 634 3220 271 
Q 2806 -91 2034 -91 
Q 1263 -91 848 271 
Q 434 634 434 1313 
Q 434 1759 690 2068 
Q 947 2378 1403 2484 
z
M 1172 3481 
Q 1172 3119 1398 2916 
Q 1625 2713 2034 2713 
Q 2441 2713 2670 2916 
Q 2900 3119 2900 3481 
Q 2900 3844 2670 4047 
Q 2441 4250 2034 4250 
Q 1625 4250 1398 4047 
Q 1172 3844 1172 3481 
z
" transform="scale(0.015625)"/>
       </defs>
       <use xlink:href="#DejaVuSans-38"/>
       <use xlink:href="#DejaVuSans-30" x="63.623047"/>
       <use xlink:href="#DejaVuSans-30" x="127.246094"/>
      </g>
     </g>
    </g>
    <g id="ytick_3">
     <g id="line2d_23">
      <path d="M 108 238.481576 
L 777.6 238.481576 
" clip-path="url(#pec0a8b3ad5)" style="fill: none; stroke-dasharray: 5.12,1.28,0.8,1.28; stroke-dashoffset: 0; stroke: #b0b0b0; stroke-width: 0.8"/>
     </g>
     <g id="line2d_24">
      <g>
       <use xlink:href="#meb4a288f3b" x="108" y="238.481576" style="fill: #a9a9a9; stroke: #a9a9a9; stroke-width: 0.8"/>
      </g>
     </g>
     <g id="text_12">
      <!-- 1600 -->
      <g style="fill: #a9a9a9" transform="translate(75.55 242.280795) scale(0.1 -0.1)">
       <defs>
        <path id="DejaVuSans-36" d="M 2113 2584 
Q 1688 2584 1439 2293 
Q 1191 2003 1191 1497 
Q 1191 994 1439 701 
Q 1688 409 2113 409 
Q 2538 409 2786 701 
Q 3034 994 3034 1497 
Q 3034 2003 2786 2293 
Q 2538 2584 2113 2584 
z
M 3366 4563 
L 3366 3988 
Q 3128 4100 2886 4159 
Q 2644 4219 2406 4219 
Q 1781 4219 1451 3797 
Q 1122 3375 1075 2522 
Q 1259 2794 1537 2939 
Q 1816 3084 2150 3084 
Q 2853 3084 3261 2657 
Q 3669 2231 3669 1497 
Q 3669 778 3244 343 
Q 2819 -91 2113 -91 
Q 1303 -91 875 529 
Q 447 1150 447 2328 
Q 447 3434 972 4092 
Q 1497 4750 2381 4750 
Q 2619 4750 2861 4703 
Q 3103 4656 3366 4563 
z
" transform="scale(0.015625)"/>
       </defs>
       <use xlink:href="#DejaVuSans-31"/>
       <use xlink:href="#DejaVuSans-36" x="63.623047"/>
       <use xlink:href="#DejaVuSans-30" x="127.246094"/>
       <use xlink:href="#DejaVuSans-30" x="190.869141"/>
      </g>
     </g>
    </g>
    <g id="ytick_4">
     <g id="line2d_25">
      <path d="M 108 203.800688 
L 777.6 203.800688 
" clip-path="url(#pec0a8b3ad5)" style="fill: none; stroke-dasharray: 5.12,1.28,0.8,1.28; stroke-dashoffset: 0; stroke: #b0b0b0; stroke-width: 0.8"/>
     </g>
     <g id="line2d_26">
      <g>
       <use xlink:href="#meb4a288f3b" x="108" y="203.800688" style="fill: #a9a9a9; stroke: #a9a9a9; stroke-width: 0.8"/>
      </g>
     </g>
     <g id="text_13">
      <!-- 2400 -->
      <g style="fill: #a9a9a9" transform="translate(75.55 207.599907) scale(0.1 -0.1)">
       <use xlink:href="#DejaVuSans-32"/>
       <use xlink:href="#DejaVuSans-34" x="63.623047"/>
       <use xlink:href="#DejaVuSans-30" x="127.246094"/>
       <use xlink:href="#DejaVuSans-30" x="190.869141"/>
      </g>
     </g>
    </g>
    <g id="ytick_5">
     <g id="line2d_27">
      <path d="M 108 169.1198 
L 777.6 169.1198 
" clip-path="url(#pec0a8b3ad5)" style="fill: none; stroke-dasharray: 5.12,1.28,0.8,1.28; stroke-dashoffset: 0; stroke: #b0b0b0; stroke-width: 0.8"/>
     </g>
     <g id="line2d_28">
      <g>
       <use xlink:href="#meb4a288f3b" x="108" y="169.1198" style="fill: #a9a9a9; stroke: #a9a9a9; stroke-width: 0.8"/>
      </g>
     </g>
     <g id="text_14">
      <!-- 3200 -->
      <g style="fill: #a9a9a9" transform="translate(75.55 172.919019) scale(0.1 -0.1)">
       <use xlink:href="#DejaVuSans-33"/>
       <use xlink:href="#DejaVuSans-32" x="63.623047"/>
       <use xlink:href="#DejaVuSans-30" x="127.246094"/>
       <use xlink:href="#DejaVuSans-30" x="190.869141"/>
      </g>
     </g>
    </g>
    <g id="ytick_6">
     <g id="line2d_29">
      <path d="M 108 134.438913 
L 777.6 134.438913 
" clip-path="url(#pec0a8b3ad5)" style="fill: none; stroke-dasharray: 5.12,1.28,0.8,1.28; stroke-dashoffset: 0; stroke: #b0b0b0; stroke-width: 0.8"/>
     </g>
     <g id="line2d_30">
      <g>
       <use xlink:href="#meb4a288f3b" x="108" y="134.438913" style="fill: #a9a9a9; stroke: #a9a9a9; stroke-width: 0.8"/>
      </g>
     </g>
     <g id="text_15">
      <!-- 4000 -->
      <g style="fill: #a9a9a9" transform="translate(75.55 138.238132) scale(0.1 -0.1)">
       <use xlink:href="#DejaVuSans-34"/>
       <use xlink:href="#DejaVuSans-30" x="63.623047"/>
       <use xlink:href="#DejaVuSans-30" x="127.246094"/>
       <use xlink:href="#DejaVuSans-30" x="190.869141"/>
      </g>
     </g>
    </g>
    <g id="ytick_7">
     <g id="line2d_31">
      <path d="M 108 99.758025 
L 777.6 99.758025 
" clip-path="url(#pec0a8b3ad5)" style="fill: none; stroke-dasharray: 5.12,1.28,0.8,1.28; stroke-dashoffset: 0; stroke: #b0b0b0; stroke-width: 0.8"/>
     </g>
     <g id="line2d_32">
      <g>
       <use xlink:href="#meb4a288f3b" x="108" y="99.758025" style="fill: #a9a9a9; stroke: #a9a9a9; stroke-width: 0.8"/>
      </g>
     </g>
     <g id="text_16">
      <!-- 4800 -->
      <g style="fill: #a9a9a9" transform="translate(75.55 103.557244) scale(0.1 -0.1)">
       <use xlink:href="#DejaVuSans-34"/>
       <use xlink:href="#DejaVuSans-38" x="63.623047"/>
       <use xlink:href="#DejaVuSans-30" x="127.246094"/>
       <use xlink:href="#DejaVuSans-30" x="190.869141"/>
      </g>
     </g>
    </g>
    <g id="ytick_8">
     <g id="line2d_33">
      <path d="M 108 65.077137 
L 777.6 65.077137 
" clip-path="url(#pec0a8b3ad5)" style="fill: none; stroke-dasharray: 5.12,1.28,0.8,1.28; stroke-dashoffset: 0; stroke: #b0b0b0; stroke-width: 0.8"/>
     </g>
     <g id="line2d_34">
      <g>
       <use xlink:href="#meb4a288f3b" x="108" y="65.077137" style="fill: #a9a9a9; stroke: #a9a9a9; stroke-width: 0.8"/>
      </g>
     </g>
     <g id="text_17">
      <!-- 5600 -->
      <g style="fill: #a9a9a9" transform="translate(75.55 68.876356) scale(0.1 -0.1)">
       <use xlink:href="#DejaVuSans-35"/>
       <use xlink:href="#DejaVuSans-36" x="63.623047"/>
       <use xlink:href="#DejaVuSans-30" x="127.246094"/>
       <use xlink:href="#DejaVuSans-30" x="190.869141"/>
      </g>
     </g>
    </g>
   </g>
   <g id="line2d_35">
    <path d="M 138.436364 307.713298 
L 142.182378 307.40984 
L 142.806713 307.149733 
L 144.67972 306.932978 
L 148.425734 306.196009 
L 152.171748 305.892551 
L 152.796084 305.589093 
L 153.42042 305.415689 
L 154.044755 304.635369 
L 154.669091 304.201858 
L 155.293427 302.857974 
L 155.917762 302.771271 
L 156.542098 302.294409 
L 157.790769 301.687494 
L 160.288112 299.780045 
L 161.536783 299.259831 
L 162.161119 298.82632 
L 164.658462 297.742543 
L 165.282797 296.788818 
L 166.531469 295.921796 
L 167.155804 295.618338 
L 173.399161 294.751316 
L 174.023497 294.447858 
L 178.393846 294.101049 
L 180.266853 293.624187 
L 185.885874 292.887218 
L 186.51021 292.540409 
L 187.134545 292.453707 
L 187.758881 292.193601 
L 189.007552 291.976845 
L 189.631888 291.933494 
L 190.880559 291.673387 
L 191.504895 291.630036 
L 194.002238 291.023121 
L 195.875245 290.849716 
L 197.123916 290.719663 
L 197.748252 290.546258 
L 198.372587 290.502907 
L 200.245594 289.939343 
L 203.991608 289.375778 
L 204.615944 289.202374 
L 205.24028 288.378703 
L 207.113287 287.685085 
L 208.986294 287.164872 
L 209.610629 286.861414 
L 210.234965 286.818063 
L 213.356643 285.951041 
L 214.605315 285.864339 
L 215.22965 285.777636 
L 217.102657 285.214072 
L 219.6 284.607156 
L 220.224336 284.34705 
L 220.848671 284.260347 
L 221.473007 283.95689 
L 227.716364 283.003165 
L 230.838042 282.136143 
L 231.462378 281.745983 
L 233.95972 281.095716 
L 235.208392 280.358748 
L 235.832727 279.925237 
L 237.705734 279.578428 
L 241.451748 278.451299 
L 242.70042 278.061139 
L 243.324755 277.974437 
L 244.573427 277.627628 
L 245.822098 277.32417 
L 246.446434 277.237468 
L 247.695105 276.717254 
L 248.319441 276.587201 
L 248.943776 276.327094 
L 249.568112 276.240392 
L 250.192448 275.936934 
L 250.816783 275.76353 
L 252.065455 275.676828 
L 253.314126 275.243317 
L 254.562797 275.156614 
L 255.187133 274.853157 
L 257.684476 274.419646 
L 260.181818 274.20289 
L 260.806154 274.072837 
L 262.054825 273.465921 
L 268.922517 270.561397 
L 269.546853 270.214588 
L 270.171189 269.564321 
L 270.795524 268.523895 
L 271.41986 267.700224 
L 272.044196 267.526819 
L 272.668531 267.526819 
L 273.917203 266.616446 
L 274.541538 266.443041 
L 275.165874 266.096233 
L 275.79021 265.966179 
L 276.414545 265.402615 
L 277.038881 265.22921 
L 278.911888 264.318837 
L 280.160559 262.584793 
L 280.784895 262.194633 
L 281.409231 261.154206 
L 282.033566 260.503939 
L 282.657902 260.200482 
L 283.282238 260.027077 
L 285.77958 258.55314 
L 287.028252 257.556064 
L 287.652587 257.165904 
L 288.276923 256.255531 
L 288.901259 254.868295 
L 289.525594 253.957922 
L 290.14993 253.48106 
L 290.774266 253.220953 
L 293.271608 251.053398 
L 294.52028 250.056322 
L 295.144615 249.536109 
L 295.768951 248.712438 
L 297.017622 247.62866 
L 299.514965 246.024669 
L 300.139301 245.461104 
L 300.763636 245.331051 
L 301.387972 245.070944 
L 303.260979 244.030518 
L 304.50965 243.423602 
L 305.758322 242.253122 
L 306.382657 241.516153 
L 307.631329 240.649131 
L 308.255664 240.475727 
L 308.88 240.172269 
L 310.128671 239.348598 
L 310.753007 239.001789 
L 311.377343 238.915087 
L 316.996364 235.5337 
L 317.620699 235.316945 
L 319.493706 234.103114 
L 321.366713 233.539549 
L 321.991049 233.106038 
L 322.615385 232.975985 
L 323.864056 232.542474 
L 325.737063 231.805505 
L 327.61007 231.111887 
L 328.858741 230.895132 
L 330.107413 229.811354 
L 331.356084 229.204438 
L 332.604755 228.510821 
L 333.229091 228.164012 
L 334.477762 227.817203 
L 335.102098 227.427043 
L 335.726434 227.253638 
L 337.599441 226.083158 
L 340.721119 225.34619 
L 342.594126 224.262412 
L 343.218462 224.17571 
L 343.842797 223.958954 
L 345.091469 223.698847 
L 346.964476 222.311612 
L 348.837483 221.878101 
L 349.461818 221.661345 
L 350.086154 221.184483 
L 353.832168 219.970652 
L 354.456503 219.927301 
L 355.080839 219.753896 
L 356.32951 219.233683 
L 360.69986 217.716394 
L 361.948531 217.54299 
L 362.572867 217.369585 
L 363.197203 217.066128 
L 363.821538 216.936074 
L 365.694545 216.069052 
L 367.567552 215.158679 
L 368.191888 214.725168 
L 368.816224 214.551763 
L 370.689231 213.554688 
L 371.937902 213.25123 
L 373.186573 212.600963 
L 374.435245 212.254154 
L 375.05958 212.167452 
L 376.308252 211.430483 
L 376.932587 211.30043 
L 378.181259 210.780217 
L 378.805594 210.650163 
L 379.42993 210.303355 
L 381.927273 209.913195 
L 383.175944 209.306279 
L 383.80028 208.786066 
L 384.424615 207.702288 
L 385.673287 207.442181 
L 386.297622 207.312128 
L 388.794965 206.011595 
L 389.419301 205.881541 
L 394.413986 203.540581 
L 396.286993 203.150421 
L 397.535664 202.543506 
L 398.16 202.283399 
L 398.784336 202.196697 
L 401.281678 201.112919 
L 403.154685 199.942439 
L 403.779021 199.855737 
L 404.403357 199.638982 
L 405.027692 199.59563 
L 408.149371 198.771959 
L 408.773706 198.295097 
L 410.022378 197.861586 
L 411.895385 197.254671 
L 412.51972 196.864511 
L 413.144056 196.691106 
L 413.768392 196.257595 
L 414.392727 195.997488 
L 415.641399 195.347222 
L 418.138741 194.566902 
L 418.763077 194.263444 
L 420.636084 192.832857 
L 421.26042 192.702804 
L 422.509091 191.74908 
L 423.133427 191.619026 
L 423.757762 190.665302 
L 424.382098 190.405195 
L 425.006434 189.928333 
L 425.630769 189.841631 
L 426.879441 189.104662 
L 427.503776 188.974609 
L 428.128112 188.714502 
L 428.752448 188.23764 
L 429.376783 188.020884 
L 431.24979 186.763702 
L 433.747133 185.50652 
L 434.371469 185.419818 
L 435.62014 184.856253 
L 436.244476 184.509444 
L 436.868811 183.469018 
L 437.493147 182.905453 
L 438.117483 182.558644 
L 438.741818 182.428591 
L 439.99049 181.648271 
L 440.614825 181.518218 
L 441.863497 180.911302 
L 443.736503 180.130982 
L 444.985175 179.26396 
L 446.233846 177.963427 
L 449.355524 175.709169 
L 450.604196 174.668742 
L 451.228531 174.408636 
L 451.852867 173.715018 
L 452.477203 173.238156 
L 453.725874 172.804645 
L 454.974545 171.980974 
L 455.598881 171.677516 
L 456.223217 171.504111 
L 456.847552 171.0706 
L 457.471888 170.940547 
L 459.344895 169.943472 
L 459.969231 169.50996 
L 461.217902 169.033098 
L 461.842238 168.903045 
L 462.466573 168.512885 
L 465.588252 167.515809 
L 466.212587 167.342405 
L 466.836923 167.038947 
L 467.461259 166.475383 
L 469.334266 165.781765 
L 470.582937 165.391605 
L 471.207273 164.914743 
L 473.704615 163.61421 
L 474.328951 163.267401 
L 475.577622 160.839739 
L 476.826294 159.365801 
L 478.074965 158.628832 
L 479.947972 157.891863 
L 480.572308 157.805161 
L 481.196643 157.458352 
L 483.06965 156.894788 
L 485.566993 155.767659 
L 486.191329 155.377499 
L 487.44 154.943988 
L 491.186014 152.776432 
L 491.81035 152.126165 
L 493.059021 151.475899 
L 493.683357 151.12909 
L 494.307692 150.912334 
L 494.932028 150.478823 
L 496.180699 149.871908 
L 498.053706 148.874832 
L 498.678042 148.701428 
L 499.302378 148.224566 
L 499.926713 147.964459 
L 500.551049 147.834406 
L 501.79972 147.400895 
L 503.672727 146.707277 
L 504.297063 146.273766 
L 505.545734 145.926957 
L 506.794406 145.450095 
L 507.418741 144.973232 
L 508.667413 144.583072 
L 509.291748 144.279615 
L 509.916084 144.10621 
L 511.164755 143.239188 
L 512.413427 142.675624 
L 513.662098 141.721899 
L 514.910769 141.288388 
L 515.535105 140.768175 
L 516.159441 140.681473 
L 517.408112 139.771099 
L 518.656783 139.164184 
L 519.281119 138.904077 
L 519.905455 138.297162 
L 523.651469 136.953277 
L 525.524476 136.129606 
L 527.397483 135.566042 
L 528.646154 135.392637 
L 529.27049 135.132531 
L 529.894825 135.045828 
L 531.143497 134.525615 
L 531.767832 134.482264 
L 534.265175 133.571891 
L 536.138182 132.314708 
L 536.762517 132.054602 
L 538.011189 131.404335 
L 538.635524 131.18758 
L 541.132867 129.713642 
L 541.757203 129.323482 
L 543.005874 129.020024 
L 544.878881 127.979597 
L 546.751888 127.372682 
L 547.376224 127.112575 
L 548.624895 126.809117 
L 551.746573 125.812042 
L 553.61958 125.465233 
L 556.116923 124.684913 
L 556.741259 124.424806 
L 557.365594 124.338104 
L 557.98993 124.034646 
L 559.238601 123.77454 
L 560.487273 123.341029 
L 561.111608 123.124273 
L 562.36028 122.99422 
L 563.608951 122.690762 
L 565.481958 122.387304 
L 566.106294 122.170549 
L 567.354965 122.040495 
L 572.973986 120.393153 
L 573.598322 120.176398 
L 574.222657 120.133047 
L 577.968671 119.005918 
L 579.217343 118.572407 
L 579.841678 118.485704 
L 581.714685 117.835438 
L 582.339021 117.835438 
L 583.587692 117.401927 
L 584.212028 116.795011 
L 584.836364 116.491553 
L 586.085035 116.101393 
L 588.582378 115.147669 
L 589.206713 115.017616 
L 589.831049 114.627456 
L 590.455385 114.497402 
L 591.07972 114.150593 
L 594.201399 113.24022 
L 594.825734 112.85006 
L 595.45007 112.720007 
L 596.074406 112.199794 
L 597.947413 111.852985 
L 599.196084 111.159367 
L 599.82042 110.465749 
L 601.069091 110.205643 
L 605.439441 109.208567 
L 606.063776 109.035163 
L 607.312448 108.991811 
L 607.936783 108.688354 
L 610.434126 108.254843 
L 611.058462 107.951385 
L 612.931469 107.691278 
L 615.428811 106.910958 
L 617.301818 106.477447 
L 619.174825 106.000585 
L 621.047832 105.43702 
L 624.16951 104.526647 
L 624.793846 104.179838 
L 626.666853 103.529572 
L 627.291189 103.052709 
L 628.53986 102.705901 
L 629.164196 102.445794 
L 630.412867 102.098985 
L 632.91021 100.971856 
L 634.783217 100.841803 
L 637.280559 100.104834 
L 637.904895 99.714674 
L 639.153566 99.367865 
L 641.026573 98.414141 
L 641.650909 98.284087 
L 642.275245 97.98063 
L 642.89958 97.937279 
L 649.767273 95.63967 
L 652.264615 95.032754 
L 652.888951 94.85935 
L 654.137622 94.295785 
L 654.761958 94.209083 
L 656.010629 93.862274 
L 656.634965 93.385412 
L 657.259301 93.081954 
L 657.883636 92.344985 
L 658.507972 91.911474 
L 659.756643 91.521314 
L 660.380979 91.044452 
L 667.248671 88.22663 
L 668.497343 87.923172 
L 670.37035 87.05615 
L 671.619021 86.319181 
L 672.243357 86.189128 
L 672.867692 85.712266 
L 674.116364 85.10535 
L 675.365035 84.32503 
L 677.238042 83.458008 
L 677.862378 83.024497 
L 679.111049 82.547635 
L 680.35972 81.810666 
L 680.984056 81.507208 
L 681.608392 81.073697 
L 682.857063 80.640186 
L 683.481399 80.510132 
L 685.978741 79.383004 
L 689.10042 78.299226 
L 689.724755 78.255875 
L 690.349091 78.08247 
L 690.973427 77.69231 
L 691.597762 77.605608 
L 692.222098 77.388853 
L 694.095105 77.042044 
L 697.216783 75.438053 
L 698.465455 74.744435 
L 699.08979 74.657733 
L 700.962797 73.660657 
L 702.835804 72.967039 
L 704.708811 72.143368 
L 707.206154 71.146293 
L 707.83049 70.972888 
L 708.454825 70.582728 
L 709.703497 70.409324 
L 710.327832 70.019164 
L 710.952168 69.975813 
L 712.200839 69.585653 
L 713.44951 68.978737 
L 714.073846 68.892035 
L 714.698182 68.631928 
L 715.322517 68.501875 
L 717.195524 67.678204 
L 717.81986 67.548151 
L 718.444196 67.288044 
L 721.565874 66.551075 
L 723.438881 65.814106 
L 725.936224 64.38352 
L 727.184895 63.906657 
L 727.809231 63.516498 
L 729.057902 63.256391 
L 729.682238 62.909582 
L 730.306573 62.779529 
L 731.555245 62.085911 
L 735.301259 60.351867 
L 739.047273 59.051333 
L 740.295944 58.401067 
L 741.544615 58.010907 
L 742.168951 57.880853 
L 744.666294 56.710373 
L 745.290629 56.623671 
L 745.914965 56.406916 
L 746.539301 56.016756 
L 747.163636 55.8 
L 747.163636 55.8 
" clip-path="url(#pec0a8b3ad5)" style="fill: none; stroke: #1f77b4; stroke-width: 1.5; stroke-linecap: square"/>
   </g>
   <g id="line2d_36">
    <path d="M 139.060699 307.8 
L 140.933706 307.713298 
L 142.806713 307.669947 
L 146.552727 307.583244 
L 149.674406 307.453191 
L 152.171748 307.453191 
L 152.796084 307.279787 
L 155.293427 307.193084 
L 157.166434 306.976329 
L 159.039441 306.802924 
L 162.785455 306.62952 
L 163.40979 306.62952 
L 164.034126 306.499467 
L 166.531469 306.412764 
L 167.78014 306.326062 
L 172.774825 306.23936 
L 175.896503 306.109307 
L 183.388531 306.022605 
L 186.51021 305.892551 
L 190.256224 305.805849 
L 192.753566 305.719147 
L 198.372587 305.632445 
L 200.245594 305.589093 
L 202.118601 305.545742 
L 203.991608 305.328987 
L 207.737622 305.285636 
L 208.986294 305.198933 
L 213.356643 305.112231 
L 220.224336 304.722071 
L 224.594685 304.635369 
L 225.843357 304.548667 
L 227.716364 304.461965 
L 231.462378 304.28856 
L 233.95972 304.245209 
L 235.832727 304.071805 
L 245.822098 303.464889 
L 248.319441 303.378187 
L 252.68979 303.161431 
L 254.562797 303.074729 
L 260.806154 302.72792 
L 267.673846 302.641218 
L 270.171189 302.381111 
L 271.41986 302.294409 
L 279.536224 301.644142 
L 283.282238 301.16728 
L 285.77958 301.080578 
L 290.774266 300.430311 
L 294.52028 300.343609 
L 296.393287 300.170205 
L 297.641958 300.126854 
L 298.890629 299.9968 
L 300.763636 299.910098 
L 302.012308 299.736694 
L 305.133986 299.389885 
L 307.631329 299.303183 
L 308.88 299.21648 
L 311.377343 299.129778 
L 312.626014 299.043076 
L 315.747692 298.739618 
L 316.372028 298.566214 
L 320.118042 298.392809 
L 323.23972 298.306107 
L 331.356084 297.829245 
L 333.229091 297.742543 
L 341.345455 297.26568 
L 345.715804 297.178978 
L 346.34014 297.048925 
L 351.334825 296.962223 
L 355.705175 296.745467 
L 362.572867 296.658765 
L 366.943217 296.442009 
L 371.937902 296.355307 
L 376.932587 296.0952 
L 381.302937 296.008498 
L 393.165315 295.271529 
L 398.16 295.184827 
L 414.392727 294.1444 
L 418.138741 294.057698 
L 420.011748 294.014347 
L 421.884755 293.970996 
L 423.757762 293.797592 
L 428.752448 293.710889 
L 430.001119 293.494134 
L 431.24979 293.407432 
L 434.371469 293.277378 
L 435.62014 293.190676 
L 436.868811 293.103974 
L 442.487832 293.017272 
L 443.736503 292.887218 
L 446.233846 292.843867 
L 446.858182 292.713814 
L 448.106853 292.627112 
L 448.731189 292.497058 
L 450.604196 292.410356 
L 461.217902 291.760089 
L 463.090909 291.673387 
L 466.212587 291.543334 
L 474.953287 291.456632 
L 479.323636 291.239876 
L 484.318322 291.153174 
L 486.815664 291.066472 
L 489.313007 291.023121 
L 490.561678 290.893067 
L 493.059021 290.806365 
L 499.302378 290.459556 
L 503.048392 290.416205 
L 504.921399 290.242801 
L 506.794406 290.19945 
L 511.164755 290.112747 
L 513.662098 290.026045 
L 521.154126 289.939343 
L 524.275804 289.80929 
L 528.021818 289.722587 
L 529.894825 289.505832 
L 533.640839 289.462481 
L 535.513846 289.289076 
L 538.011189 289.202374 
L 545.503217 289.115672 
L 548.624895 288.985618 
L 559.238601 288.942267 
L 560.487273 288.855565 
L 562.36028 288.812214 
L 570.476643 288.725512 
L 571.725315 288.63881 
L 578.593007 288.552107 
L 581.09035 288.465405 
L 588.582378 288.422054 
L 589.831049 288.335352 
L 599.196084 288.292001 
L 601.069091 288.118596 
L 616.677483 288.031894 
L 618.55049 287.988543 
L 635.407552 287.901841 
L 637.904895 287.815138 
L 648.518601 287.728436 
L 649.767273 287.641734 
L 652.888951 287.555032 
L 654.761958 287.381627 
L 657.883636 287.294925 
L 660.380979 287.208223 
L 664.126993 287.121521 
L 666 287.07817 
L 668.497343 286.991467 
L 670.37035 286.948116 
L 673.492028 286.861414 
L 674.740699 286.774712 
L 678.486713 286.68801 
L 681.608392 286.557956 
L 682.857063 286.514605 
L 684.73007 286.341201 
L 688.476084 286.254499 
L 690.973427 286.167796 
L 697.216783 286.081094 
L 700.338462 285.951041 
L 706.581818 285.864339 
L 710.952168 285.647583 
L 716.571189 285.560881 
L 717.81986 285.474179 
L 729.057902 285.387476 
L 730.930909 285.344125 
L 734.052587 285.300774 
L 736.54993 285.040667 
L 738.422937 284.997316 
L 742.168951 284.910614 
L 747.163636 284.607156 
L 747.163636 284.607156 
" clip-path="url(#pec0a8b3ad5)" style="fill: none; stroke: #ff7f0e; stroke-width: 1.5; stroke-linecap: square"/>
   </g>
   <g id="patch_3">
    <path d="M 108 320.4 
L 108 43.2 
" style="fill: none; stroke: #a9a9a9; stroke-width: 0.8; stroke-linejoin: miter; stroke-linecap: square"/>
   </g>
   <g id="patch_4">
    <path d="M 777.6 320.4 
L 777.6 43.2 
" style="fill: none"/>
   </g>
   <g id="patch_5">
    <path d="M 108 320.4 
L 777.6 320.4 
" style="fill: none; stroke: #a9a9a9; stroke-width: 0.8; stroke-linejoin: miter; stroke-linecap: square"/>
   </g>
   <g id="patch_6">
    <path d="M 108 43.2 
L 777.6 43.2 
" style="fill: none"/>
   </g>
   <g id="text_18">
    <!-- get_subscribe history -->
    <g style="fill: #a9a9a9" transform="translate(378.6075 37.2) scale(0.12 -0.12)">
     <defs>
      <path id="DejaVuSans-67" d="M 2906 1791 
Q 2906 2416 2648 2759 
Q 2391 3103 1925 3103 
Q 1463 3103 1205 2759 
Q 947 2416 947 1791 
Q 947 1169 1205 825 
Q 1463 481 1925 481 
Q 2391 481 2648 825 
Q 2906 1169 2906 1791 
z
M 3481 434 
Q 3481 -459 3084 -895 
Q 2688 -1331 1869 -1331 
Q 1566 -1331 1297 -1286 
Q 1028 -1241 775 -1147 
L 775 -588 
Q 1028 -725 1275 -790 
Q 1522 -856 1778 -856 
Q 2344 -856 2625 -561 
Q 2906 -266 2906 331 
L 2906 616 
Q 2728 306 2450 153 
Q 2172 0 1784 0 
Q 1141 0 747 490 
Q 353 981 353 1791 
Q 353 2603 747 3093 
Q 1141 3584 1784 3584 
Q 2172 3584 2450 3431 
Q 2728 3278 2906 2969 
L 2906 3500 
L 3481 3500 
L 3481 434 
z
" transform="scale(0.015625)"/>
      <path id="DejaVuSans-65" d="M 3597 1894 
L 3597 1613 
L 953 1613 
Q 991 1019 1311 708 
Q 1631 397 2203 397 
Q 2534 397 2845 478 
Q 3156 559 3463 722 
L 3463 178 
Q 3153 47 2828 -22 
Q 2503 -91 2169 -91 
Q 1331 -91 842 396 
Q 353 884 353 1716 
Q 353 2575 817 3079 
Q 1281 3584 2069 3584 
Q 2775 3584 3186 3129 
Q 3597 2675 3597 1894 
z
M 3022 2063 
Q 3016 2534 2758 2815 
Q 2500 3097 2075 3097 
Q 1594 3097 1305 2825 
Q 1016 2553 972 2059 
L 3022 2063 
z
" transform="scale(0.015625)"/>
      <path id="DejaVuSans-74" d="M 1172 4494 
L 1172 3500 
L 2356 3500 
L 2356 3053 
L 1172 3053 
L 1172 1153 
Q 1172 725 1289 603 
Q 1406 481 1766 481 
L 2356 481 
L 2356 0 
L 1766 0 
Q 1100 0 847 248 
Q 594 497 594 1153 
L 594 3053 
L 172 3053 
L 172 3500 
L 594 3500 
L 594 4494 
L 1172 4494 
z
" transform="scale(0.015625)"/>
      <path id="DejaVuSans-5f" d="M 3263 -1063 
L 3263 -1509 
L -63 -1509 
L -63 -1063 
L 3263 -1063 
z
" transform="scale(0.015625)"/>
      <path id="DejaVuSans-73" d="M 2834 3397 
L 2834 2853 
Q 2591 2978 2328 3040 
Q 2066 3103 1784 3103 
Q 1356 3103 1142 2972 
Q 928 2841 928 2578 
Q 928 2378 1081 2264 
Q 1234 2150 1697 2047 
L 1894 2003 
Q 2506 1872 2764 1633 
Q 3022 1394 3022 966 
Q 3022 478 2636 193 
Q 2250 -91 1575 -91 
Q 1294 -91 989 -36 
Q 684 19 347 128 
L 347 722 
Q 666 556 975 473 
Q 1284 391 1588 391 
Q 1994 391 2212 530 
Q 2431 669 2431 922 
Q 2431 1156 2273 1281 
Q 2116 1406 1581 1522 
L 1381 1569 
Q 847 1681 609 1914 
Q 372 2147 372 2553 
Q 372 3047 722 3315 
Q 1072 3584 1716 3584 
Q 2034 3584 2315 3537 
Q 2597 3491 2834 3397 
z
" transform="scale(0.015625)"/>
      <path id="DejaVuSans-75" d="M 544 1381 
L 544 3500 
L 1119 3500 
L 1119 1403 
Q 1119 906 1312 657 
Q 1506 409 1894 409 
Q 2359 409 2629 706 
Q 2900 1003 2900 1516 
L 2900 3500 
L 3475 3500 
L 3475 0 
L 2900 0 
L 2900 538 
Q 2691 219 2414 64 
Q 2138 -91 1772 -91 
Q 1169 -91 856 284 
Q 544 659 544 1381 
z
M 1991 3584 
L 1991 3584 
z
" transform="scale(0.015625)"/>
      <path id="DejaVuSans-62" d="M 3116 1747 
Q 3116 2381 2855 2742 
Q 2594 3103 2138 3103 
Q 1681 3103 1420 2742 
Q 1159 2381 1159 1747 
Q 1159 1113 1420 752 
Q 1681 391 2138 391 
Q 2594 391 2855 752 
Q 3116 1113 3116 1747 
z
M 1159 2969 
Q 1341 3281 1617 3432 
Q 1894 3584 2278 3584 
Q 2916 3584 3314 3078 
Q 3713 2572 3713 1747 
Q 3713 922 3314 415 
Q 2916 -91 2278 -91 
Q 1894 -91 1617 61 
Q 1341 213 1159 525 
L 1159 0 
L 581 0 
L 581 4863 
L 1159 4863 
L 1159 2969 
z
" transform="scale(0.015625)"/>
      <path id="DejaVuSans-63" d="M 3122 3366 
L 3122 2828 
Q 2878 2963 2633 3030 
Q 2388 3097 2138 3097 
Q 1578 3097 1268 2742 
Q 959 2388 959 1747 
Q 959 1106 1268 751 
Q 1578 397 2138 397 
Q 2388 397 2633 464 
Q 2878 531 3122 666 
L 3122 134 
Q 2881 22 2623 -34 
Q 2366 -91 2075 -91 
Q 1284 -91 818 406 
Q 353 903 353 1747 
Q 353 2603 823 3093 
Q 1294 3584 2113 3584 
Q 2378 3584 2631 3529 
Q 2884 3475 3122 3366 
z
" transform="scale(0.015625)"/>
      <path id="DejaVuSans-72" d="M 2631 2963 
Q 2534 3019 2420 3045 
Q 2306 3072 2169 3072 
Q 1681 3072 1420 2755 
Q 1159 2438 1159 1844 
L 1159 0 
L 581 0 
L 581 3500 
L 1159 3500 
L 1159 2956 
Q 1341 3275 1631 3429 
Q 1922 3584 2338 3584 
Q 2397 3584 2469 3576 
Q 2541 3569 2628 3553 
L 2631 2963 
z
" transform="scale(0.015625)"/>
      <path id="DejaVuSans-69" d="M 603 3500 
L 1178 3500 
L 1178 0 
L 603 0 
L 603 3500 
z
M 603 4863 
L 1178 4863 
L 1178 4134 
L 603 4134 
L 603 4863 
z
" transform="scale(0.015625)"/>
      <path id="DejaVuSans-20" transform="scale(0.015625)"/>
      <path id="DejaVuSans-68" d="M 3513 2113 
L 3513 0 
L 2938 0 
L 2938 2094 
Q 2938 2591 2744 2837 
Q 2550 3084 2163 3084 
Q 1697 3084 1428 2787 
Q 1159 2491 1159 1978 
L 1159 0 
L 581 0 
L 581 4863 
L 1159 4863 
L 1159 2956 
Q 1366 3272 1645 3428 
Q 1925 3584 2291 3584 
Q 2894 3584 3203 3211 
Q 3513 2838 3513 2113 
z
" transform="scale(0.015625)"/>
      <path id="DejaVuSans-6f" d="M 1959 3097 
Q 1497 3097 1228 2736 
Q 959 2375 959 1747 
Q 959 1119 1226 758 
Q 1494 397 1959 397 
Q 2419 397 2687 759 
Q 2956 1122 2956 1747 
Q 2956 2369 2687 2733 
Q 2419 3097 1959 3097 
z
M 1959 3584 
Q 2709 3584 3137 3096 
Q 3566 2609 3566 1747 
Q 3566 888 3137 398 
Q 2709 -91 1959 -91 
Q 1206 -91 779 398 
Q 353 888 353 1747 
Q 353 2609 779 3096 
Q 1206 3584 1959 3584 
z
" transform="scale(0.015625)"/>
      <path id="DejaVuSans-79" d="M 2059 -325 
Q 1816 -950 1584 -1140 
Q 1353 -1331 966 -1331 
L 506 -1331 
L 506 -850 
L 844 -850 
Q 1081 -850 1212 -737 
Q 1344 -625 1503 -206 
L 1606 56 
L 191 3500 
L 800 3500 
L 1894 763 
L 2988 3500 
L 3597 3500 
L 2059 -325 
z
" transform="scale(0.015625)"/>
     </defs>
     <use xlink:href="#DejaVuSans-67"/>
     <use xlink:href="#DejaVuSans-65" x="63.476562"/>
     <use xlink:href="#DejaVuSans-74" x="125"/>
     <use xlink:href="#DejaVuSans-5f" x="164.208984"/>
     <use xlink:href="#DejaVuSans-73" x="214.208984"/>
     <use xlink:href="#DejaVuSans-75" x="266.308594"/>
     <use xlink:href="#DejaVuSans-62" x="329.6875"/>
     <use xlink:href="#DejaVuSans-73" x="393.164062"/>
     <use xlink:href="#DejaVuSans-63" x="445.263672"/>
     <use xlink:href="#DejaVuSans-72" x="500.244141"/>
     <use xlink:href="#DejaVuSans-69" x="541.357422"/>
     <use xlink:href="#DejaVuSans-62" x="569.140625"/>
     <use xlink:href="#DejaVuSans-65" x="632.617188"/>
     <use xlink:href="#DejaVuSans-20" x="694.140625"/>
     <use xlink:href="#DejaVuSans-68" x="725.927734"/>
     <use xlink:href="#DejaVuSans-69" x="789.306641"/>
     <use xlink:href="#DejaVuSans-73" x="817.089844"/>
     <use xlink:href="#DejaVuSans-74" x="869.189453"/>
     <use xlink:href="#DejaVuSans-6f" x="908.398438"/>
     <use xlink:href="#DejaVuSans-72" x="969.580078"/>
     <use xlink:href="#DejaVuSans-79" x="1010.693359"/>
    </g>
   </g>
   <g id="legend_1">
    <g id="line2d_37">
     <path d="M 815.08 328.498438 
L 825.08 328.498438 
L 835.08 328.498438 
" style="fill: none; stroke: #1f77b4; stroke-width: 1.5; stroke-linecap: square"/>
    </g>
    <g id="text_19">
     <!-- star -->
     <g style="fill: #a9a9a9" transform="translate(843.08 331.998438) scale(0.1 -0.1)">
      <defs>
       <path id="DejaVuSans-61" d="M 2194 1759 
Q 1497 1759 1228 1600 
Q 959 1441 959 1056 
Q 959 750 1161 570 
Q 1363 391 1709 391 
Q 2188 391 2477 730 
Q 2766 1069 2766 1631 
L 2766 1759 
L 2194 1759 
z
M 3341 1997 
L 3341 0 
L 2766 0 
L 2766 531 
Q 2569 213 2275 61 
Q 1981 -91 1556 -91 
Q 1019 -91 701 211 
Q 384 513 384 1019 
Q 384 1609 779 1909 
Q 1175 2209 1959 2209 
L 2766 2209 
L 2766 2266 
Q 2766 2663 2505 2880 
Q 2244 3097 1772 3097 
Q 1472 3097 1187 3025 
Q 903 2953 641 2809 
L 641 3341 
Q 956 3463 1253 3523 
Q 1550 3584 1831 3584 
Q 2591 3584 2966 3190 
Q 3341 2797 3341 1997 
z
" transform="scale(0.015625)"/>
      </defs>
      <use xlink:href="#DejaVuSans-73"/>
      <use xlink:href="#DejaVuSans-74" x="52.099609"/>
      <use xlink:href="#DejaVuSans-61" x="91.308594"/>
      <use xlink:href="#DejaVuSans-72" x="152.587891"/>
     </g>
    </g>
    <g id="line2d_38">
     <path d="M 815.08 343.176562 
L 825.08 343.176562 
L 835.08 343.176562 
" style="fill: none; stroke: #ff7f0e; stroke-width: 1.5; stroke-linecap: square"/>
    </g>
    <g id="text_20">
     <!-- fork -->
     <g style="fill: #a9a9a9" transform="translate(843.08 346.676562) scale(0.1 -0.1)">
      <defs>
       <path id="DejaVuSans-66" d="M 2375 4863 
L 2375 4384 
L 1825 4384 
Q 1516 4384 1395 4259 
Q 1275 4134 1275 3809 
L 1275 3500 
L 2222 3500 
L 2222 3053 
L 1275 3053 
L 1275 0 
L 697 0 
L 697 3053 
L 147 3053 
L 147 3500 
L 697 3500 
L 697 3744 
Q 697 4328 969 4595 
Q 1241 4863 1831 4863 
L 2375 4863 
z
" transform="scale(0.015625)"/>
       <path id="DejaVuSans-6b" d="M 581 4863 
L 1159 4863 
L 1159 1991 
L 2875 3500 
L 3609 3500 
L 1753 1863 
L 3688 0 
L 2938 0 
L 1159 1709 
L 1159 0 
L 581 0 
L 581 4863 
z
" transform="scale(0.015625)"/>
      </defs>
      <use xlink:href="#DejaVuSans-66"/>
      <use xlink:href="#DejaVuSans-6f" x="35.205078"/>
      <use xlink:href="#DejaVuSans-72" x="96.386719"/>
      <use xlink:href="#DejaVuSans-6b" x="137.5"/>
     </g>
    </g>
   </g>
  </g>
 </g>
 <defs>
  <clipPath id="pec0a8b3ad5">
   <rect x="108" y="43.2" width="669.6" height="277.2"/>
  </clipPath>
 </defs>
</svg>
