<?xml version="1.0" encoding="utf-8" standalone="no"?>
<!DOCTYPE svg PUBLIC "-//W3C//DTD SVG 1.1//EN"
  "http://www.w3.org/Graphics/SVG/1.1/DTD/svg11.dtd">
<svg xmlns:xlink="http://www.w3.org/1999/xlink" width="864pt" height="360pt" viewBox="0 0 864 360" xmlns="http://www.w3.org/2000/svg" version="1.1">
 <metadata>
  <rdf:RDF xmlns:dc="http://purl.org/dc/elements/1.1/" xmlns:cc="http://creativecommons.org/ns#" xmlns:rdf="http://www.w3.org/1999/02/22-rdf-syntax-ns#">
   <cc:Work>
    <dc:type rdf:resource="http://purl.org/dc/dcmitype/StillImage"/>
    <dc:date>2024-03-25T08:11:27.376120</dc:date>
    <dc:format>image/svg+xml</dc:format>
    <dc:creator>
     <cc:Agent>
      <dc:title>Matplotlib v3.8.3, https://matplotlib.org/</dc:title>
     </cc:Agent>
    </dc:creator>
   </cc:Work>
  </rdf:RDF>
 </metadata>
 <defs>
  <style type="text/css">*{stroke-linejoin: round; stroke-linecap: butt}</style>
 </defs>
 <g id="figure_1">
  <g id="patch_1">
   <path d="M 0 360 
L 864 360 
L 864 0 
L 0 0 
L 0 360 
z
" style="fill: none; opacity: 0"/>
  </g>
  <g id="axes_1">
   <g id="patch_2">
    <path d="M 108 320.4 
L 777.6 320.4 
L 777.6 43.2 
L 108 43.2 
L 108 320.4 
z
" style="fill: none; opacity: 0"/>
   </g>
   <g id="matplotlib.axis_1">
    <g id="xtick_1">
     <g id="line2d_1">
      <path d="M 162.785455 320.4 
L 162.785455 43.2 
" clip-path="url(#p4e76c2275b)" style="fill: none; stroke-dasharray: 5.12,1.28,0.8,1.28; stroke-dashoffset: 0; stroke: #b0b0b0; stroke-width: 0.8"/>
     </g>
     <g id="line2d_2">
      <defs>
       <path id="m25918b406c" d="M 0 0 
L 0 3.5 
" style="stroke: #a9a9a9; stroke-width: 0.8"/>
      </defs>
      <g>
       <use xlink:href="#m25918b406c" x="162.785455" y="320.4" style="fill: #a9a9a9; stroke: #a9a9a9; stroke-width: 0.8"/>
      </g>
     </g>
     <g id="text_1">
      <!-- 2021-09 -->
      <g style="fill: #a9a9a9" transform="translate(141.894048 334.998438) scale(0.1 -0.1)">
       <defs>
        <path id="DejaVuSans-32" d="M 1228 531 
L 3431 531 
L 3431 0 
L 469 0 
L 469 531 
Q 828 903 1448 1529 
Q 2069 2156 2228 2338 
Q 2531 2678 2651 2914 
Q 2772 3150 2772 3378 
Q 2772 3750 2511 3984 
Q 2250 4219 1831 4219 
Q 1534 4219 1204 4116 
Q 875 4013 500 3803 
L 500 4441 
Q 881 4594 1212 4672 
Q 1544 4750 1819 4750 
Q 2544 4750 2975 4387 
Q 3406 4025 3406 3419 
Q 3406 3131 3298 2873 
Q 3191 2616 2906 2266 
Q 2828 2175 2409 1742 
Q 1991 1309 1228 531 
z
" transform="scale(0.015625)"/>
        <path id="DejaVuSans-30" d="M 2034 4250 
Q 1547 4250 1301 3770 
Q 1056 3291 1056 2328 
Q 1056 1369 1301 889 
Q 1547 409 2034 409 
Q 2525 409 2770 889 
Q 3016 1369 3016 2328 
Q 3016 3291 2770 3770 
Q 2525 4250 2034 4250 
z
M 2034 4750 
Q 2819 4750 3233 4129 
Q 3647 3509 3647 2328 
Q 3647 1150 3233 529 
Q 2819 -91 2034 -91 
Q 1250 -91 836 529 
Q 422 1150 422 2328 
Q 422 3509 836 4129 
Q 1250 4750 2034 4750 
z
" transform="scale(0.015625)"/>
        <path id="DejaVuSans-31" d="M 794 531 
L 1825 531 
L 1825 4091 
L 703 3866 
L 703 4441 
L 1819 4666 
L 2450 4666 
L 2450 531 
L 3481 531 
L 3481 0 
L 794 0 
L 794 531 
z
" transform="scale(0.015625)"/>
        <path id="DejaVuSans-2d" d="M 313 2009 
L 1997 2009 
L 1997 1497 
L 313 1497 
L 313 2009 
z
" transform="scale(0.015625)"/>
        <path id="DejaVuSans-39" d="M 703 97 
L 703 672 
Q 941 559 1184 500 
Q 1428 441 1663 441 
Q 2288 441 2617 861 
Q 2947 1281 2994 2138 
Q 2813 1869 2534 1725 
Q 2256 1581 1919 1581 
Q 1219 1581 811 2004 
Q 403 2428 403 3163 
Q 403 3881 828 4315 
Q 1253 4750 1959 4750 
Q 2769 4750 3195 4129 
Q 3622 3509 3622 2328 
Q 3622 1225 3098 567 
Q 2575 -91 1691 -91 
Q 1453 -91 1209 -44 
Q 966 3 703 97 
z
M 1959 2075 
Q 2384 2075 2632 2365 
Q 2881 2656 2881 3163 
Q 2881 3666 2632 3958 
Q 2384 4250 1959 4250 
Q 1534 4250 1286 3958 
Q 1038 3666 1038 3163 
Q 1038 2656 1286 2365 
Q 1534 2075 1959 2075 
z
" transform="scale(0.015625)"/>
       </defs>
       <use xlink:href="#DejaVuSans-32"/>
       <use xlink:href="#DejaVuSans-30" x="63.623047"/>
       <use xlink:href="#DejaVuSans-32" x="127.246094"/>
       <use xlink:href="#DejaVuSans-31" x="190.869141"/>
       <use xlink:href="#DejaVuSans-2d" x="254.492188"/>
       <use xlink:href="#DejaVuSans-30" x="290.576172"/>
       <use xlink:href="#DejaVuSans-39" x="354.199219"/>
      </g>
     </g>
    </g>
    <g id="xtick_2">
     <g id="line2d_3">
      <path d="M 238.954406 320.4 
L 238.954406 43.2 
" clip-path="url(#p4e76c2275b)" style="fill: none; stroke-dasharray: 5.12,1.28,0.8,1.28; stroke-dashoffset: 0; stroke: #b0b0b0; stroke-width: 0.8"/>
     </g>
     <g id="line2d_4">
      <g>
       <use xlink:href="#m25918b406c" x="238.954406" y="320.4" style="fill: #a9a9a9; stroke: #a9a9a9; stroke-width: 0.8"/>
      </g>
     </g>
     <g id="text_2">
      <!-- 2022-01 -->
      <g style="fill: #a9a9a9" transform="translate(218.062999 334.998438) scale(0.1 -0.1)">
       <use xlink:href="#DejaVuSans-32"/>
       <use xlink:href="#DejaVuSans-30" x="63.623047"/>
       <use xlink:href="#DejaVuSans-32" x="127.246094"/>
       <use xlink:href="#DejaVuSans-32" x="190.869141"/>
       <use xlink:href="#DejaVuSans-2d" x="254.492188"/>
       <use xlink:href="#DejaVuSans-30" x="290.576172"/>
       <use xlink:href="#DejaVuSans-31" x="354.199219"/>
      </g>
     </g>
    </g>
    <g id="xtick_3">
     <g id="line2d_5">
      <path d="M 313.874685 320.4 
L 313.874685 43.2 
" clip-path="url(#p4e76c2275b)" style="fill: none; stroke-dasharray: 5.12,1.28,0.8,1.28; stroke-dashoffset: 0; stroke: #b0b0b0; stroke-width: 0.8"/>
     </g>
     <g id="line2d_6">
      <g>
       <use xlink:href="#m25918b406c" x="313.874685" y="320.4" style="fill: #a9a9a9; stroke: #a9a9a9; stroke-width: 0.8"/>
      </g>
     </g>
     <g id="text_3">
      <!-- 2022-05 -->
      <g style="fill: #a9a9a9" transform="translate(292.983279 334.998438) scale(0.1 -0.1)">
       <defs>
        <path id="DejaVuSans-35" d="M 691 4666 
L 3169 4666 
L 3169 4134 
L 1269 4134 
L 1269 2991 
Q 1406 3038 1543 3061 
Q 1681 3084 1819 3084 
Q 2600 3084 3056 2656 
Q 3513 2228 3513 1497 
Q 3513 744 3044 326 
Q 2575 -91 1722 -91 
Q 1428 -91 1123 -41 
Q 819 9 494 109 
L 494 744 
Q 775 591 1075 516 
Q 1375 441 1709 441 
Q 2250 441 2565 725 
Q 2881 1009 2881 1497 
Q 2881 1984 2565 2268 
Q 2250 2553 1709 2553 
Q 1456 2553 1204 2497 
Q 953 2441 691 2322 
L 691 4666 
z
" transform="scale(0.015625)"/>
       </defs>
       <use xlink:href="#DejaVuSans-32"/>
       <use xlink:href="#DejaVuSans-30" x="63.623047"/>
       <use xlink:href="#DejaVuSans-32" x="127.246094"/>
       <use xlink:href="#DejaVuSans-32" x="190.869141"/>
       <use xlink:href="#DejaVuSans-2d" x="254.492188"/>
       <use xlink:href="#DejaVuSans-30" x="290.576172"/>
       <use xlink:href="#DejaVuSans-35" x="354.199219"/>
      </g>
     </g>
    </g>
    <g id="xtick_4">
     <g id="line2d_7">
      <path d="M 390.667972 320.4 
L 390.667972 43.2 
" clip-path="url(#p4e76c2275b)" style="fill: none; stroke-dasharray: 5.12,1.28,0.8,1.28; stroke-dashoffset: 0; stroke: #b0b0b0; stroke-width: 0.8"/>
     </g>
     <g id="line2d_8">
      <g>
       <use xlink:href="#m25918b406c" x="390.667972" y="320.4" style="fill: #a9a9a9; stroke: #a9a9a9; stroke-width: 0.8"/>
      </g>
     </g>
     <g id="text_4">
      <!-- 2022-09 -->
      <g style="fill: #a9a9a9" transform="translate(369.776566 334.998438) scale(0.1 -0.1)">
       <use xlink:href="#DejaVuSans-32"/>
       <use xlink:href="#DejaVuSans-30" x="63.623047"/>
       <use xlink:href="#DejaVuSans-32" x="127.246094"/>
       <use xlink:href="#DejaVuSans-32" x="190.869141"/>
       <use xlink:href="#DejaVuSans-2d" x="254.492188"/>
       <use xlink:href="#DejaVuSans-30" x="290.576172"/>
       <use xlink:href="#DejaVuSans-39" x="354.199219"/>
      </g>
     </g>
    </g>
    <g id="xtick_5">
     <g id="line2d_9">
      <path d="M 466.836923 320.4 
L 466.836923 43.2 
" clip-path="url(#p4e76c2275b)" style="fill: none; stroke-dasharray: 5.12,1.28,0.8,1.28; stroke-dashoffset: 0; stroke: #b0b0b0; stroke-width: 0.8"/>
     </g>
     <g id="line2d_10">
      <g>
       <use xlink:href="#m25918b406c" x="466.836923" y="320.4" style="fill: #a9a9a9; stroke: #a9a9a9; stroke-width: 0.8"/>
      </g>
     </g>
     <g id="text_5">
      <!-- 2023-01 -->
      <g style="fill: #a9a9a9" transform="translate(445.945517 334.998438) scale(0.1 -0.1)">
       <defs>
        <path id="DejaVuSans-33" d="M 2597 2516 
Q 3050 2419 3304 2112 
Q 3559 1806 3559 1356 
Q 3559 666 3084 287 
Q 2609 -91 1734 -91 
Q 1441 -91 1130 -33 
Q 819 25 488 141 
L 488 750 
Q 750 597 1062 519 
Q 1375 441 1716 441 
Q 2309 441 2620 675 
Q 2931 909 2931 1356 
Q 2931 1769 2642 2001 
Q 2353 2234 1838 2234 
L 1294 2234 
L 1294 2753 
L 1863 2753 
Q 2328 2753 2575 2939 
Q 2822 3125 2822 3475 
Q 2822 3834 2567 4026 
Q 2313 4219 1838 4219 
Q 1578 4219 1281 4162 
Q 984 4106 628 3988 
L 628 4550 
Q 988 4650 1302 4700 
Q 1616 4750 1894 4750 
Q 2613 4750 3031 4423 
Q 3450 4097 3450 3541 
Q 3450 3153 3228 2886 
Q 3006 2619 2597 2516 
z
" transform="scale(0.015625)"/>
       </defs>
       <use xlink:href="#DejaVuSans-32"/>
       <use xlink:href="#DejaVuSans-30" x="63.623047"/>
       <use xlink:href="#DejaVuSans-32" x="127.246094"/>
       <use xlink:href="#DejaVuSans-33" x="190.869141"/>
       <use xlink:href="#DejaVuSans-2d" x="254.492188"/>
       <use xlink:href="#DejaVuSans-30" x="290.576172"/>
       <use xlink:href="#DejaVuSans-31" x="354.199219"/>
      </g>
     </g>
    </g>
    <g id="xtick_6">
     <g id="line2d_11">
      <path d="M 541.757203 320.4 
L 541.757203 43.2 
" clip-path="url(#p4e76c2275b)" style="fill: none; stroke-dasharray: 5.12,1.28,0.8,1.28; stroke-dashoffset: 0; stroke: #b0b0b0; stroke-width: 0.8"/>
     </g>
     <g id="line2d_12">
      <g>
       <use xlink:href="#m25918b406c" x="541.757203" y="320.4" style="fill: #a9a9a9; stroke: #a9a9a9; stroke-width: 0.8"/>
      </g>
     </g>
     <g id="text_6">
      <!-- 2023-05 -->
      <g style="fill: #a9a9a9" transform="translate(520.865797 334.998438) scale(0.1 -0.1)">
       <use xlink:href="#DejaVuSans-32"/>
       <use xlink:href="#DejaVuSans-30" x="63.623047"/>
       <use xlink:href="#DejaVuSans-32" x="127.246094"/>
       <use xlink:href="#DejaVuSans-33" x="190.869141"/>
       <use xlink:href="#DejaVuSans-2d" x="254.492188"/>
       <use xlink:href="#DejaVuSans-30" x="290.576172"/>
       <use xlink:href="#DejaVuSans-35" x="354.199219"/>
      </g>
     </g>
    </g>
    <g id="xtick_7">
     <g id="line2d_13">
      <path d="M 618.55049 320.4 
L 618.55049 43.2 
" clip-path="url(#p4e76c2275b)" style="fill: none; stroke-dasharray: 5.12,1.28,0.8,1.28; stroke-dashoffset: 0; stroke: #b0b0b0; stroke-width: 0.8"/>
     </g>
     <g id="line2d_14">
      <g>
       <use xlink:href="#m25918b406c" x="618.55049" y="320.4" style="fill: #a9a9a9; stroke: #a9a9a9; stroke-width: 0.8"/>
      </g>
     </g>
     <g id="text_7">
      <!-- 2023-09 -->
      <g style="fill: #a9a9a9" transform="translate(597.659083 334.998438) scale(0.1 -0.1)">
       <use xlink:href="#DejaVuSans-32"/>
       <use xlink:href="#DejaVuSans-30" x="63.623047"/>
       <use xlink:href="#DejaVuSans-32" x="127.246094"/>
       <use xlink:href="#DejaVuSans-33" x="190.869141"/>
       <use xlink:href="#DejaVuSans-2d" x="254.492188"/>
       <use xlink:href="#DejaVuSans-30" x="290.576172"/>
       <use xlink:href="#DejaVuSans-39" x="354.199219"/>
      </g>
     </g>
    </g>
    <g id="xtick_8">
     <g id="line2d_15">
      <path d="M 694.719441 320.4 
L 694.719441 43.2 
" clip-path="url(#p4e76c2275b)" style="fill: none; stroke-dasharray: 5.12,1.28,0.8,1.28; stroke-dashoffset: 0; stroke: #b0b0b0; stroke-width: 0.8"/>
     </g>
     <g id="line2d_16">
      <g>
       <use xlink:href="#m25918b406c" x="694.719441" y="320.4" style="fill: #a9a9a9; stroke: #a9a9a9; stroke-width: 0.8"/>
      </g>
     </g>
     <g id="text_8">
      <!-- 2024-01 -->
      <g style="fill: #a9a9a9" transform="translate(673.828034 334.998438) scale(0.1 -0.1)">
       <defs>
        <path id="DejaVuSans-34" d="M 2419 4116 
L 825 1625 
L 2419 1625 
L 2419 4116 
z
M 2253 4666 
L 3047 4666 
L 3047 1625 
L 3713 1625 
L 3713 1100 
L 3047 1100 
L 3047 0 
L 2419 0 
L 2419 1100 
L 313 1100 
L 313 1709 
L 2253 4666 
z
" transform="scale(0.015625)"/>
       </defs>
       <use xlink:href="#DejaVuSans-32"/>
       <use xlink:href="#DejaVuSans-30" x="63.623047"/>
       <use xlink:href="#DejaVuSans-32" x="127.246094"/>
       <use xlink:href="#DejaVuSans-34" x="190.869141"/>
       <use xlink:href="#DejaVuSans-2d" x="254.492188"/>
       <use xlink:href="#DejaVuSans-30" x="290.576172"/>
       <use xlink:href="#DejaVuSans-31" x="354.199219"/>
      </g>
     </g>
    </g>
    <g id="xtick_9">
     <g id="line2d_17">
      <path d="M 770.264056 320.4 
L 770.264056 43.2 
" clip-path="url(#p4e76c2275b)" style="fill: none; stroke-dasharray: 5.12,1.28,0.8,1.28; stroke-dashoffset: 0; stroke: #b0b0b0; stroke-width: 0.8"/>
     </g>
     <g id="line2d_18">
      <g>
       <use xlink:href="#m25918b406c" x="770.264056" y="320.4" style="fill: #a9a9a9; stroke: #a9a9a9; stroke-width: 0.8"/>
      </g>
     </g>
     <g id="text_9">
      <!-- 2024-05 -->
      <g style="fill: #a9a9a9" transform="translate(749.37265 334.998438) scale(0.1 -0.1)">
       <use xlink:href="#DejaVuSans-32"/>
       <use xlink:href="#DejaVuSans-30" x="63.623047"/>
       <use xlink:href="#DejaVuSans-32" x="127.246094"/>
       <use xlink:href="#DejaVuSans-34" x="190.869141"/>
       <use xlink:href="#DejaVuSans-2d" x="254.492188"/>
       <use xlink:href="#DejaVuSans-30" x="290.576172"/>
       <use xlink:href="#DejaVuSans-35" x="354.199219"/>
      </g>
     </g>
    </g>
   </g>
   <g id="matplotlib.axis_2">
    <g id="ytick_1">
     <g id="line2d_19">
      <path d="M 108 307.843373 
L 777.6 307.843373 
" clip-path="url(#p4e76c2275b)" style="fill: none; stroke-dasharray: 5.12,1.28,0.8,1.28; stroke-dashoffset: 0; stroke: #b0b0b0; stroke-width: 0.8"/>
     </g>
     <g id="line2d_20">
      <defs>
       <path id="m331ca1dd27" d="M 0 0 
L -3.5 0 
" style="stroke: #a9a9a9; stroke-width: 0.8"/>
      </defs>
      <g>
       <use xlink:href="#m331ca1dd27" x="108" y="307.843373" style="fill: #a9a9a9; stroke: #a9a9a9; stroke-width: 0.8"/>
      </g>
     </g>
     <g id="text_10">
      <!-- 0 -->
      <g style="fill: #a9a9a9" transform="translate(94.6375 311.642592) scale(0.1 -0.1)">
       <use xlink:href="#DejaVuSans-30"/>
      </g>
     </g>
    </g>
    <g id="ytick_2">
     <g id="line2d_21">
      <path d="M 108 273.144578 
L 777.6 273.144578 
" clip-path="url(#p4e76c2275b)" style="fill: none; stroke-dasharray: 5.12,1.28,0.8,1.28; stroke-dashoffset: 0; stroke: #b0b0b0; stroke-width: 0.8"/>
     </g>
     <g id="line2d_22">
      <g>
       <use xlink:href="#m331ca1dd27" x="108" y="273.144578" style="fill: #a9a9a9; stroke: #a9a9a9; stroke-width: 0.8"/>
      </g>
     </g>
     <g id="text_11">
      <!-- 800 -->
      <g style="fill: #a9a9a9" transform="translate(81.9125 276.943797) scale(0.1 -0.1)">
       <defs>
        <path id="DejaVuSans-38" d="M 2034 2216 
Q 1584 2216 1326 1975 
Q 1069 1734 1069 1313 
Q 1069 891 1326 650 
Q 1584 409 2034 409 
Q 2484 409 2743 651 
Q 3003 894 3003 1313 
Q 3003 1734 2745 1975 
Q 2488 2216 2034 2216 
z
M 1403 2484 
Q 997 2584 770 2862 
Q 544 3141 544 3541 
Q 544 4100 942 4425 
Q 1341 4750 2034 4750 
Q 2731 4750 3128 4425 
Q 3525 4100 3525 3541 
Q 3525 3141 3298 2862 
Q 3072 2584 2669 2484 
Q 3125 2378 3379 2068 
Q 3634 1759 3634 1313 
Q 3634 634 3220 271 
Q 2806 -91 2034 -91 
Q 1263 -91 848 271 
Q 434 634 434 1313 
Q 434 1759 690 2068 
Q 947 2378 1403 2484 
z
M 1172 3481 
Q 1172 3119 1398 2916 
Q 1625 2713 2034 2713 
Q 2441 2713 2670 2916 
Q 2900 3119 2900 3481 
Q 2900 3844 2670 4047 
Q 2441 4250 2034 4250 
Q 1625 4250 1398 4047 
Q 1172 3844 1172 3481 
z
" transform="scale(0.015625)"/>
       </defs>
       <use xlink:href="#DejaVuSans-38"/>
       <use xlink:href="#DejaVuSans-30" x="63.623047"/>
       <use xlink:href="#DejaVuSans-30" x="127.246094"/>
      </g>
     </g>
    </g>
    <g id="ytick_3">
     <g id="line2d_23">
      <path d="M 108 238.445783 
L 777.6 238.445783 
" clip-path="url(#p4e76c2275b)" style="fill: none; stroke-dasharray: 5.12,1.28,0.8,1.28; stroke-dashoffset: 0; stroke: #b0b0b0; stroke-width: 0.8"/>
     </g>
     <g id="line2d_24">
      <g>
       <use xlink:href="#m331ca1dd27" x="108" y="238.445783" style="fill: #a9a9a9; stroke: #a9a9a9; stroke-width: 0.8"/>
      </g>
     </g>
     <g id="text_12">
      <!-- 1600 -->
      <g style="fill: #a9a9a9" transform="translate(75.55 242.245002) scale(0.1 -0.1)">
       <defs>
        <path id="DejaVuSans-36" d="M 2113 2584 
Q 1688 2584 1439 2293 
Q 1191 2003 1191 1497 
Q 1191 994 1439 701 
Q 1688 409 2113 409 
Q 2538 409 2786 701 
Q 3034 994 3034 1497 
Q 3034 2003 2786 2293 
Q 2538 2584 2113 2584 
z
M 3366 4563 
L 3366 3988 
Q 3128 4100 2886 4159 
Q 2644 4219 2406 4219 
Q 1781 4219 1451 3797 
Q 1122 3375 1075 2522 
Q 1259 2794 1537 2939 
Q 1816 3084 2150 3084 
Q 2853 3084 3261 2657 
Q 3669 2231 3669 1497 
Q 3669 778 3244 343 
Q 2819 -91 2113 -91 
Q 1303 -91 875 529 
Q 447 1150 447 2328 
Q 447 3434 972 4092 
Q 1497 4750 2381 4750 
Q 2619 4750 2861 4703 
Q 3103 4656 3366 4563 
z
" transform="scale(0.015625)"/>
       </defs>
       <use xlink:href="#DejaVuSans-31"/>
       <use xlink:href="#DejaVuSans-36" x="63.623047"/>
       <use xlink:href="#DejaVuSans-30" x="127.246094"/>
       <use xlink:href="#DejaVuSans-30" x="190.869141"/>
      </g>
     </g>
    </g>
    <g id="ytick_4">
     <g id="line2d_25">
      <path d="M 108 203.746988 
L 777.6 203.746988 
" clip-path="url(#p4e76c2275b)" style="fill: none; stroke-dasharray: 5.12,1.28,0.8,1.28; stroke-dashoffset: 0; stroke: #b0b0b0; stroke-width: 0.8"/>
     </g>
     <g id="line2d_26">
      <g>
       <use xlink:href="#m331ca1dd27" x="108" y="203.746988" style="fill: #a9a9a9; stroke: #a9a9a9; stroke-width: 0.8"/>
      </g>
     </g>
     <g id="text_13">
      <!-- 2400 -->
      <g style="fill: #a9a9a9" transform="translate(75.55 207.546207) scale(0.1 -0.1)">
       <use xlink:href="#DejaVuSans-32"/>
       <use xlink:href="#DejaVuSans-34" x="63.623047"/>
       <use xlink:href="#DejaVuSans-30" x="127.246094"/>
       <use xlink:href="#DejaVuSans-30" x="190.869141"/>
      </g>
     </g>
    </g>
    <g id="ytick_5">
     <g id="line2d_27">
      <path d="M 108 169.048193 
L 777.6 169.048193 
" clip-path="url(#p4e76c2275b)" style="fill: none; stroke-dasharray: 5.12,1.28,0.8,1.28; stroke-dashoffset: 0; stroke: #b0b0b0; stroke-width: 0.8"/>
     </g>
     <g id="line2d_28">
      <g>
       <use xlink:href="#m331ca1dd27" x="108" y="169.048193" style="fill: #a9a9a9; stroke: #a9a9a9; stroke-width: 0.8"/>
      </g>
     </g>
     <g id="text_14">
      <!-- 3200 -->
      <g style="fill: #a9a9a9" transform="translate(75.55 172.847412) scale(0.1 -0.1)">
       <use xlink:href="#DejaVuSans-33"/>
       <use xlink:href="#DejaVuSans-32" x="63.623047"/>
       <use xlink:href="#DejaVuSans-30" x="127.246094"/>
       <use xlink:href="#DejaVuSans-30" x="190.869141"/>
      </g>
     </g>
    </g>
    <g id="ytick_6">
     <g id="line2d_29">
      <path d="M 108 134.349398 
L 777.6 134.349398 
" clip-path="url(#p4e76c2275b)" style="fill: none; stroke-dasharray: 5.12,1.28,0.8,1.28; stroke-dashoffset: 0; stroke: #b0b0b0; stroke-width: 0.8"/>
     </g>
     <g id="line2d_30">
      <g>
       <use xlink:href="#m331ca1dd27" x="108" y="134.349398" style="fill: #a9a9a9; stroke: #a9a9a9; stroke-width: 0.8"/>
      </g>
     </g>
     <g id="text_15">
      <!-- 4000 -->
      <g style="fill: #a9a9a9" transform="translate(75.55 138.148616) scale(0.1 -0.1)">
       <use xlink:href="#DejaVuSans-34"/>
       <use xlink:href="#DejaVuSans-30" x="63.623047"/>
       <use xlink:href="#DejaVuSans-30" x="127.246094"/>
       <use xlink:href="#DejaVuSans-30" x="190.869141"/>
      </g>
     </g>
    </g>
    <g id="ytick_7">
     <g id="line2d_31">
      <path d="M 108 99.650602 
L 777.6 99.650602 
" clip-path="url(#p4e76c2275b)" style="fill: none; stroke-dasharray: 5.12,1.28,0.8,1.28; stroke-dashoffset: 0; stroke: #b0b0b0; stroke-width: 0.8"/>
     </g>
     <g id="line2d_32">
      <g>
       <use xlink:href="#m331ca1dd27" x="108" y="99.650602" style="fill: #a9a9a9; stroke: #a9a9a9; stroke-width: 0.8"/>
      </g>
     </g>
     <g id="text_16">
      <!-- 4800 -->
      <g style="fill: #a9a9a9" transform="translate(75.55 103.449821) scale(0.1 -0.1)">
       <use xlink:href="#DejaVuSans-34"/>
       <use xlink:href="#DejaVuSans-38" x="63.623047"/>
       <use xlink:href="#DejaVuSans-30" x="127.246094"/>
       <use xlink:href="#DejaVuSans-30" x="190.869141"/>
      </g>
     </g>
    </g>
    <g id="ytick_8">
     <g id="line2d_33">
      <path d="M 108 64.951807 
L 777.6 64.951807 
" clip-path="url(#p4e76c2275b)" style="fill: none; stroke-dasharray: 5.12,1.28,0.8,1.28; stroke-dashoffset: 0; stroke: #b0b0b0; stroke-width: 0.8"/>
     </g>
     <g id="line2d_34">
      <g>
       <use xlink:href="#m331ca1dd27" x="108" y="64.951807" style="fill: #a9a9a9; stroke: #a9a9a9; stroke-width: 0.8"/>
      </g>
     </g>
     <g id="text_17">
      <!-- 5600 -->
      <g style="fill: #a9a9a9" transform="translate(75.55 68.751026) scale(0.1 -0.1)">
       <use xlink:href="#DejaVuSans-35"/>
       <use xlink:href="#DejaVuSans-36" x="63.623047"/>
       <use xlink:href="#DejaVuSans-30" x="127.246094"/>
       <use xlink:href="#DejaVuSans-30" x="190.869141"/>
      </g>
     </g>
    </g>
   </g>
   <g id="line2d_35">
    <path d="M 138.436364 307.713253 
L 142.182378 307.409639 
L 142.806713 307.149398 
L 144.67972 306.93253 
L 148.425734 306.195181 
L 152.171748 305.891566 
L 152.796084 305.587952 
L 153.42042 305.414458 
L 154.044755 304.633735 
L 154.669091 304.2 
L 155.293427 302.855422 
L 155.917762 302.768675 
L 156.542098 302.291566 
L 157.790769 301.684337 
L 160.288112 299.775904 
L 161.536783 299.255422 
L 162.161119 298.821687 
L 164.658462 297.737349 
L 165.282797 296.783133 
L 166.531469 295.915663 
L 167.155804 295.612048 
L 173.399161 294.744578 
L 174.023497 294.440964 
L 178.393846 294.093976 
L 180.266853 293.616867 
L 185.885874 292.879518 
L 186.51021 292.53253 
L 187.134545 292.445783 
L 187.758881 292.185542 
L 189.007552 291.968675 
L 189.631888 291.925301 
L 190.880559 291.66506 
L 191.504895 291.621687 
L 194.002238 291.014458 
L 195.875245 290.840964 
L 197.123916 290.710843 
L 197.748252 290.537349 
L 198.372587 290.493976 
L 200.245594 289.93012 
L 203.991608 289.366265 
L 204.615944 289.192771 
L 205.24028 288.368675 
L 207.113287 287.674699 
L 208.986294 287.154217 
L 209.610629 286.850602 
L 210.234965 286.807229 
L 213.356643 285.939759 
L 214.605315 285.853012 
L 215.22965 285.766265 
L 217.102657 285.20241 
L 219.6 284.595181 
L 220.224336 284.33494 
L 220.848671 284.248193 
L 221.473007 283.944578 
L 227.716364 282.990361 
L 230.838042 282.122892 
L 231.462378 281.73253 
L 233.95972 281.081928 
L 235.208392 280.344578 
L 235.832727 279.910843 
L 237.705734 279.563855 
L 241.451748 278.436145 
L 242.70042 278.045783 
L 243.324755 277.959036 
L 244.573427 277.612048 
L 245.822098 277.308434 
L 246.446434 277.221687 
L 247.695105 276.701205 
L 248.319441 276.571084 
L 248.943776 276.310843 
L 249.568112 276.224096 
L 250.192448 275.920482 
L 250.816783 275.746988 
L 252.065455 275.660241 
L 253.314126 275.226506 
L 254.562797 275.139759 
L 255.187133 274.836145 
L 257.684476 274.40241 
L 260.181818 274.185542 
L 260.806154 274.055422 
L 262.054825 273.448193 
L 268.922517 270.542169 
L 269.546853 270.195181 
L 270.171189 269.544578 
L 270.795524 268.503614 
L 271.41986 267.679518 
L 272.044196 267.506024 
L 272.668531 267.506024 
L 273.917203 266.595181 
L 274.541538 266.421687 
L 275.165874 266.074699 
L 275.79021 265.944578 
L 276.414545 265.380723 
L 277.038881 265.207229 
L 278.911888 264.296386 
L 280.160559 262.561446 
L 280.784895 262.171084 
L 281.409231 261.13012 
L 282.033566 260.479518 
L 282.657902 260.175904 
L 283.282238 260.00241 
L 285.77958 258.527711 
L 287.028252 257.53012 
L 287.652587 257.139759 
L 288.276923 256.228916 
L 288.901259 254.840964 
L 289.525594 253.93012 
L 290.14993 253.453012 
L 290.774266 253.192771 
L 293.271608 251.024096 
L 294.52028 250.026506 
L 295.144615 249.506024 
L 295.768951 248.681928 
L 297.017622 247.59759 
L 299.514965 245.992771 
L 300.139301 245.428916 
L 300.763636 245.298795 
L 301.387972 245.038554 
L 303.260979 243.99759 
L 304.50965 243.390361 
L 305.758322 242.219277 
L 306.382657 241.481928 
L 307.631329 240.614458 
L 308.255664 240.440964 
L 308.88 240.137349 
L 310.128671 239.313253 
L 310.753007 238.966265 
L 311.377343 238.879518 
L 316.996364 235.496386 
L 317.620699 235.279518 
L 319.493706 234.06506 
L 321.366713 233.501205 
L 321.991049 233.06747 
L 322.615385 232.937349 
L 323.864056 232.503614 
L 325.737063 231.766265 
L 327.61007 231.072289 
L 328.858741 230.855422 
L 330.107413 229.771084 
L 331.356084 229.163855 
L 332.604755 228.46988 
L 333.229091 228.122892 
L 334.477762 227.775904 
L 335.102098 227.385542 
L 335.726434 227.212048 
L 337.599441 226.040964 
L 340.721119 225.303614 
L 342.594126 224.219277 
L 343.218462 224.13253 
L 343.842797 223.915663 
L 345.091469 223.655422 
L 346.964476 222.26747 
L 348.837483 221.833735 
L 349.461818 221.616867 
L 350.086154 221.139759 
L 353.832168 219.925301 
L 354.456503 219.881928 
L 355.080839 219.708434 
L 356.32951 219.187952 
L 360.69986 217.66988 
L 361.948531 217.496386 
L 362.572867 217.322892 
L 363.197203 217.019277 
L 363.821538 216.889157 
L 365.694545 216.021687 
L 367.567552 215.110843 
L 368.191888 214.677108 
L 368.816224 214.503614 
L 370.689231 213.506024 
L 371.937902 213.20241 
L 373.186573 212.551807 
L 374.435245 212.204819 
L 375.05958 212.118072 
L 376.308252 211.380723 
L 376.932587 211.250602 
L 378.181259 210.73012 
L 378.805594 210.6 
L 379.42993 210.253012 
L 381.927273 209.862651 
L 383.175944 209.255422 
L 383.80028 208.73494 
L 384.424615 207.650602 
L 385.673287 207.390361 
L 386.297622 207.260241 
L 388.794965 205.959036 
L 389.419301 205.828916 
L 394.413986 203.443373 
L 396.286993 203.053012 
L 397.535664 202.445783 
L 398.16 202.185542 
L 398.784336 202.098795 
L 401.281678 201.014458 
L 403.154685 199.843373 
L 403.779021 199.756627 
L 404.403357 199.539759 
L 405.027692 199.496386 
L 408.149371 198.672289 
L 408.773706 198.195181 
L 410.022378 197.761446 
L 411.895385 197.154217 
L 412.51972 196.763855 
L 413.144056 196.590361 
L 413.768392 196.156627 
L 414.392727 195.896386 
L 415.641399 195.245783 
L 418.138741 194.46506 
L 418.763077 194.161446 
L 420.636084 192.73012 
L 421.26042 192.6 
L 422.509091 191.645783 
L 423.133427 191.515663 
L 423.757762 190.561446 
L 424.382098 190.301205 
L 425.006434 189.824096 
L 425.630769 189.737349 
L 426.879441 189 
L 427.503776 188.86988 
L 428.128112 188.609639 
L 428.752448 188.13253 
L 429.376783 187.915663 
L 431.24979 186.657831 
L 433.747133 185.4 
L 434.371469 185.313253 
L 435.62014 184.749398 
L 436.244476 184.40241 
L 436.868811 183.361446 
L 437.493147 182.79759 
L 438.117483 182.450602 
L 438.741818 182.320482 
L 439.99049 181.539759 
L 440.614825 181.409639 
L 441.863497 180.80241 
L 443.736503 180.021687 
L 444.985175 179.154217 
L 446.233846 177.853012 
L 449.355524 175.59759 
L 450.604196 174.556627 
L 451.228531 174.296386 
L 451.852867 173.60241 
L 452.477203 173.125301 
L 453.725874 172.691566 
L 454.974545 171.86747 
L 455.598881 171.563855 
L 456.223217 171.390361 
L 456.847552 170.956627 
L 457.471888 170.826506 
L 459.344895 169.828916 
L 460.593566 169.091566 
L 466.836923 166.879518 
L 467.461259 166.315663 
L 469.334266 165.621687 
L 470.582937 165.231325 
L 471.207273 164.754217 
L 473.704615 163.453012 
L 474.328951 163.106024 
L 475.577622 160.677108 
L 476.826294 159.20241 
L 478.074965 158.46506 
L 479.947972 157.727711 
L 480.572308 157.640964 
L 481.196643 157.293976 
L 483.06965 156.73012 
L 485.566993 155.60241 
L 486.191329 155.212048 
L 487.44 154.778313 
L 491.186014 152.609639 
L 491.81035 151.959036 
L 493.059021 151.308434 
L 493.683357 150.961446 
L 494.307692 150.744578 
L 494.932028 150.310843 
L 496.180699 149.703614 
L 498.053706 148.706024 
L 498.678042 148.53253 
L 499.302378 148.055422 
L 499.926713 147.795181 
L 500.551049 147.66506 
L 501.79972 147.231325 
L 503.672727 146.537349 
L 504.297063 146.103614 
L 505.545734 145.756627 
L 506.794406 145.279518 
L 507.418741 144.80241 
L 508.667413 144.412048 
L 509.291748 144.108434 
L 509.916084 143.93494 
L 511.164755 143.06747 
L 512.413427 142.503614 
L 513.662098 141.549398 
L 514.910769 141.115663 
L 515.535105 140.595181 
L 516.159441 140.508434 
L 517.408112 139.59759 
L 518.656783 138.990361 
L 519.281119 138.73012 
L 519.905455 138.122892 
L 523.651469 136.778313 
L 525.524476 135.954217 
L 527.397483 135.390361 
L 528.646154 135.216867 
L 529.27049 134.956627 
L 529.894825 134.86988 
L 531.143497 134.349398 
L 531.767832 134.306024 
L 534.265175 133.395181 
L 536.138182 132.137349 
L 536.762517 131.877108 
L 538.011189 131.226506 
L 538.635524 131.009639 
L 541.132867 129.53494 
L 541.757203 129.144578 
L 543.005874 128.840964 
L 544.878881 127.8 
L 546.751888 127.192771 
L 547.376224 126.93253 
L 548.624895 126.628916 
L 551.746573 125.631325 
L 553.61958 125.284337 
L 556.116923 124.503614 
L 556.741259 124.243373 
L 557.365594 124.156627 
L 557.98993 123.853012 
L 559.238601 123.592771 
L 560.487273 123.159036 
L 561.111608 122.942169 
L 562.36028 122.812048 
L 563.608951 122.508434 
L 565.481958 122.204819 
L 566.106294 121.987952 
L 567.354965 121.857831 
L 572.973986 120.209639 
L 573.598322 119.992771 
L 574.222657 119.949398 
L 577.968671 118.821687 
L 579.217343 118.387952 
L 579.841678 118.301205 
L 581.714685 117.650602 
L 582.339021 117.650602 
L 583.587692 117.216867 
L 584.212028 116.609639 
L 584.836364 116.306024 
L 586.085035 115.915663 
L 588.582378 114.961446 
L 589.206713 114.831325 
L 589.831049 114.440964 
L 590.455385 114.310843 
L 591.07972 113.963855 
L 594.201399 113.053012 
L 594.825734 112.662651 
L 595.45007 112.53253 
L 596.074406 112.012048 
L 597.947413 111.66506 
L 599.196084 110.971084 
L 599.82042 110.277108 
L 601.069091 110.016867 
L 605.439441 109.019277 
L 606.063776 108.845783 
L 607.312448 108.80241 
L 607.936783 108.498795 
L 610.434126 108.06506 
L 611.058462 107.761446 
L 612.931469 107.501205 
L 615.428811 106.720482 
L 617.301818 106.286747 
L 619.174825 105.809639 
L 621.047832 105.245783 
L 624.16951 104.33494 
L 624.793846 103.987952 
L 626.666853 103.337349 
L 627.291189 102.860241 
L 628.53986 102.513253 
L 629.164196 102.253012 
L 630.412867 101.906024 
L 632.91021 100.778313 
L 634.783217 100.648193 
L 637.280559 99.910843 
L 637.904895 99.520482 
L 639.153566 99.173494 
L 641.026573 98.219277 
L 641.650909 98.089157 
L 642.275245 97.785542 
L 642.89958 97.742169 
L 649.767273 95.443373 
L 652.264615 94.836145 
L 652.888951 94.662651 
L 654.137622 94.098795 
L 654.761958 94.012048 
L 656.010629 93.66506 
L 656.634965 93.187952 
L 657.259301 92.884337 
L 657.883636 92.146988 
L 658.507972 91.713253 
L 659.756643 91.322892 
L 660.380979 90.845783 
L 667.248671 88.026506 
L 668.497343 87.722892 
L 670.37035 86.855422 
L 671.619021 86.118072 
L 672.243357 85.987952 
L 672.867692 85.510843 
L 674.116364 84.903614 
L 675.365035 84.122892 
L 677.238042 83.255422 
L 677.862378 82.821687 
L 679.111049 82.344578 
L 680.35972 81.607229 
L 680.984056 81.303614 
L 681.608392 80.86988 
L 682.857063 80.436145 
L 683.481399 80.306024 
L 685.978741 79.178313 
L 689.10042 78.093976 
L 689.724755 78.050602 
L 690.349091 77.877108 
L 690.973427 77.486747 
L 691.597762 77.4 
L 692.222098 77.183133 
L 694.095105 76.836145 
L 697.216783 75.231325 
L 698.465455 74.537349 
L 699.08979 74.450602 
L 700.962797 73.453012 
L 702.835804 72.759036 
L 704.708811 71.93494 
L 707.206154 70.937349 
L 707.83049 70.763855 
L 708.454825 70.373494 
L 709.703497 70.2 
L 710.327832 69.809639 
L 710.952168 69.766265 
L 712.200839 69.375904 
L 713.44951 68.768675 
L 714.073846 68.681928 
L 714.698182 68.421687 
L 715.322517 68.291566 
L 717.195524 67.46747 
L 717.81986 67.337349 
L 718.444196 67.077108 
L 721.565874 66.339759 
L 723.438881 65.60241 
L 725.936224 64.171084 
L 727.184895 63.693976 
L 727.809231 63.303614 
L 729.057902 63.043373 
L 729.682238 62.696386 
L 730.306573 62.566265 
L 731.555245 61.872289 
L 735.301259 60.137349 
L 739.047273 58.836145 
L 740.295944 58.185542 
L 741.544615 57.795181 
L 742.168951 57.66506 
L 744.666294 56.493976 
L 745.290629 56.407229 
L 745.914965 56.190361 
L 746.539301 55.8 
L 747.163636 55.8 
L 747.163636 55.8 
" clip-path="url(#p4e76c2275b)" style="fill: none; stroke: #1f77b4; stroke-width: 1.5; stroke-linecap: square"/>
   </g>
   <g id="line2d_36">
    <path d="M 139.060699 307.8 
L 140.933706 307.713253 
L 142.806713 307.66988 
L 146.552727 307.583133 
L 149.674406 307.453012 
L 152.171748 307.453012 
L 152.796084 307.279518 
L 155.293427 307.192771 
L 157.166434 306.975904 
L 159.039441 306.80241 
L 162.785455 306.628916 
L 163.40979 306.628916 
L 164.034126 306.498795 
L 166.531469 306.412048 
L 167.78014 306.325301 
L 172.774825 306.238554 
L 175.896503 306.108434 
L 183.388531 306.021687 
L 186.51021 305.891566 
L 190.256224 305.804819 
L 192.753566 305.718072 
L 198.372587 305.631325 
L 200.245594 305.587952 
L 202.118601 305.544578 
L 203.991608 305.327711 
L 207.737622 305.284337 
L 208.986294 305.19759 
L 213.356643 305.110843 
L 220.224336 304.720482 
L 224.594685 304.633735 
L 225.843357 304.546988 
L 227.716364 304.460241 
L 231.462378 304.286747 
L 233.95972 304.243373 
L 235.832727 304.06988 
L 245.822098 303.462651 
L 248.319441 303.375904 
L 252.68979 303.159036 
L 254.562797 303.072289 
L 260.806154 302.725301 
L 267.673846 302.638554 
L 270.171189 302.378313 
L 271.41986 302.291566 
L 279.536224 301.640964 
L 283.282238 301.163855 
L 285.77958 301.077108 
L 290.774266 300.426506 
L 294.52028 300.339759 
L 296.393287 300.166265 
L 297.641958 300.122892 
L 298.890629 299.992771 
L 300.763636 299.906024 
L 302.012308 299.73253 
L 305.133986 299.385542 
L 307.631329 299.298795 
L 308.88 299.212048 
L 311.377343 299.125301 
L 312.626014 299.038554 
L 315.747692 298.73494 
L 316.372028 298.561446 
L 320.118042 298.387952 
L 323.23972 298.301205 
L 331.356084 297.824096 
L 333.229091 297.737349 
L 341.345455 297.260241 
L 345.715804 297.173494 
L 346.34014 297.043373 
L 351.334825 296.956627 
L 355.705175 296.739759 
L 362.572867 296.653012 
L 366.943217 296.436145 
L 371.937902 296.349398 
L 376.932587 296.089157 
L 381.302937 296.00241 
L 393.165315 295.26506 
L 398.16 295.178313 
L 414.392727 294.137349 
L 418.138741 294.050602 
L 420.011748 294.007229 
L 421.884755 293.963855 
L 423.757762 293.790361 
L 428.752448 293.703614 
L 430.001119 293.486747 
L 431.24979 293.4 
L 434.371469 293.26988 
L 435.62014 293.183133 
L 436.868811 293.096386 
L 442.487832 293.009639 
L 443.736503 292.879518 
L 446.233846 292.836145 
L 446.858182 292.706024 
L 448.106853 292.619277 
L 448.731189 292.489157 
L 450.604196 292.40241 
L 461.217902 291.751807 
L 463.090909 291.66506 
L 466.212587 291.53494 
L 474.953287 291.448193 
L 479.323636 291.231325 
L 484.318322 291.144578 
L 486.815664 291.057831 
L 489.313007 291.014458 
L 490.561678 290.884337 
L 493.059021 290.79759 
L 499.302378 290.450602 
L 503.048392 290.407229 
L 504.921399 290.233735 
L 506.794406 290.190361 
L 511.164755 290.103614 
L 513.662098 290.016867 
L 521.154126 289.93012 
L 524.275804 289.8 
L 528.021818 289.713253 
L 529.894825 289.496386 
L 533.640839 289.453012 
L 535.513846 289.279518 
L 538.011189 289.192771 
L 545.503217 289.106024 
L 548.624895 288.975904 
L 559.238601 288.93253 
L 560.487273 288.845783 
L 562.36028 288.80241 
L 570.476643 288.715663 
L 571.725315 288.628916 
L 578.593007 288.542169 
L 581.09035 288.455422 
L 588.582378 288.412048 
L 589.831049 288.325301 
L 599.196084 288.281928 
L 601.069091 288.108434 
L 616.677483 288.021687 
L 618.55049 287.978313 
L 635.407552 287.891566 
L 637.904895 287.804819 
L 648.518601 287.718072 
L 649.767273 287.631325 
L 652.888951 287.544578 
L 654.761958 287.371084 
L 657.883636 287.284337 
L 660.380979 287.19759 
L 664.126993 287.110843 
L 666 287.06747 
L 668.497343 286.980723 
L 670.37035 286.937349 
L 673.492028 286.850602 
L 674.740699 286.763855 
L 678.486713 286.677108 
L 681.608392 286.546988 
L 682.857063 286.503614 
L 684.73007 286.33012 
L 688.476084 286.243373 
L 690.973427 286.156627 
L 697.216783 286.06988 
L 700.338462 285.939759 
L 706.581818 285.853012 
L 710.952168 285.636145 
L 716.571189 285.549398 
L 717.81986 285.462651 
L 729.057902 285.375904 
L 730.930909 285.33253 
L 734.052587 285.289157 
L 736.54993 285.028916 
L 738.422937 284.985542 
L 742.168951 284.898795 
L 747.163636 284.595181 
L 747.163636 284.595181 
" clip-path="url(#p4e76c2275b)" style="fill: none; stroke: #ff7f0e; stroke-width: 1.5; stroke-linecap: square"/>
   </g>
   <g id="patch_3">
    <path d="M 108 320.4 
L 108 43.2 
" style="fill: none; stroke: #a9a9a9; stroke-width: 0.8; stroke-linejoin: miter; stroke-linecap: square"/>
   </g>
   <g id="patch_4">
    <path d="M 777.6 320.4 
L 777.6 43.2 
" style="fill: none"/>
   </g>
   <g id="patch_5">
    <path d="M 108 320.4 
L 777.6 320.4 
" style="fill: none; stroke: #a9a9a9; stroke-width: 0.8; stroke-linejoin: miter; stroke-linecap: square"/>
   </g>
   <g id="patch_6">
    <path d="M 108 43.2 
L 777.6 43.2 
" style="fill: none"/>
   </g>
   <g id="text_18">
    <!-- get_subscribe history -->
    <g style="fill: #a9a9a9" transform="translate(378.6075 37.2) scale(0.12 -0.12)">
     <defs>
      <path id="DejaVuSans-67" d="M 2906 1791 
Q 2906 2416 2648 2759 
Q 2391 3103 1925 3103 
Q 1463 3103 1205 2759 
Q 947 2416 947 1791 
Q 947 1169 1205 825 
Q 1463 481 1925 481 
Q 2391 481 2648 825 
Q 2906 1169 2906 1791 
z
M 3481 434 
Q 3481 -459 3084 -895 
Q 2688 -1331 1869 -1331 
Q 1566 -1331 1297 -1286 
Q 1028 -1241 775 -1147 
L 775 -588 
Q 1028 -725 1275 -790 
Q 1522 -856 1778 -856 
Q 2344 -856 2625 -561 
Q 2906 -266 2906 331 
L 2906 616 
Q 2728 306 2450 153 
Q 2172 0 1784 0 
Q 1141 0 747 490 
Q 353 981 353 1791 
Q 353 2603 747 3093 
Q 1141 3584 1784 3584 
Q 2172 3584 2450 3431 
Q 2728 3278 2906 2969 
L 2906 3500 
L 3481 3500 
L 3481 434 
z
" transform="scale(0.015625)"/>
      <path id="DejaVuSans-65" d="M 3597 1894 
L 3597 1613 
L 953 1613 
Q 991 1019 1311 708 
Q 1631 397 2203 397 
Q 2534 397 2845 478 
Q 3156 559 3463 722 
L 3463 178 
Q 3153 47 2828 -22 
Q 2503 -91 2169 -91 
Q 1331 -91 842 396 
Q 353 884 353 1716 
Q 353 2575 817 3079 
Q 1281 3584 2069 3584 
Q 2775 3584 3186 3129 
Q 3597 2675 3597 1894 
z
M 3022 2063 
Q 3016 2534 2758 2815 
Q 2500 3097 2075 3097 
Q 1594 3097 1305 2825 
Q 1016 2553 972 2059 
L 3022 2063 
z
" transform="scale(0.015625)"/>
      <path id="DejaVuSans-74" d="M 1172 4494 
L 1172 3500 
L 2356 3500 
L 2356 3053 
L 1172 3053 
L 1172 1153 
Q 1172 725 1289 603 
Q 1406 481 1766 481 
L 2356 481 
L 2356 0 
L 1766 0 
Q 1100 0 847 248 
Q 594 497 594 1153 
L 594 3053 
L 172 3053 
L 172 3500 
L 594 3500 
L 594 4494 
L 1172 4494 
z
" transform="scale(0.015625)"/>
      <path id="DejaVuSans-5f" d="M 3263 -1063 
L 3263 -1509 
L -63 -1509 
L -63 -1063 
L 3263 -1063 
z
" transform="scale(0.015625)"/>
      <path id="DejaVuSans-73" d="M 2834 3397 
L 2834 2853 
Q 2591 2978 2328 3040 
Q 2066 3103 1784 3103 
Q 1356 3103 1142 2972 
Q 928 2841 928 2578 
Q 928 2378 1081 2264 
Q 1234 2150 1697 2047 
L 1894 2003 
Q 2506 1872 2764 1633 
Q 3022 1394 3022 966 
Q 3022 478 2636 193 
Q 2250 -91 1575 -91 
Q 1294 -91 989 -36 
Q 684 19 347 128 
L 347 722 
Q 666 556 975 473 
Q 1284 391 1588 391 
Q 1994 391 2212 530 
Q 2431 669 2431 922 
Q 2431 1156 2273 1281 
Q 2116 1406 1581 1522 
L 1381 1569 
Q 847 1681 609 1914 
Q 372 2147 372 2553 
Q 372 3047 722 3315 
Q 1072 3584 1716 3584 
Q 2034 3584 2315 3537 
Q 2597 3491 2834 3397 
z
" transform="scale(0.015625)"/>
      <path id="DejaVuSans-75" d="M 544 1381 
L 544 3500 
L 1119 3500 
L 1119 1403 
Q 1119 906 1312 657 
Q 1506 409 1894 409 
Q 2359 409 2629 706 
Q 2900 1003 2900 1516 
L 2900 3500 
L 3475 3500 
L 3475 0 
L 2900 0 
L 2900 538 
Q 2691 219 2414 64 
Q 2138 -91 1772 -91 
Q 1169 -91 856 284 
Q 544 659 544 1381 
z
M 1991 3584 
L 1991 3584 
z
" transform="scale(0.015625)"/>
      <path id="DejaVuSans-62" d="M 3116 1747 
Q 3116 2381 2855 2742 
Q 2594 3103 2138 3103 
Q 1681 3103 1420 2742 
Q 1159 2381 1159 1747 
Q 1159 1113 1420 752 
Q 1681 391 2138 391 
Q 2594 391 2855 752 
Q 3116 1113 3116 1747 
z
M 1159 2969 
Q 1341 3281 1617 3432 
Q 1894 3584 2278 3584 
Q 2916 3584 3314 3078 
Q 3713 2572 3713 1747 
Q 3713 922 3314 415 
Q 2916 -91 2278 -91 
Q 1894 -91 1617 61 
Q 1341 213 1159 525 
L 1159 0 
L 581 0 
L 581 4863 
L 1159 4863 
L 1159 2969 
z
" transform="scale(0.015625)"/>
      <path id="DejaVuSans-63" d="M 3122 3366 
L 3122 2828 
Q 2878 2963 2633 3030 
Q 2388 3097 2138 3097 
Q 1578 3097 1268 2742 
Q 959 2388 959 1747 
Q 959 1106 1268 751 
Q 1578 397 2138 397 
Q 2388 397 2633 464 
Q 2878 531 3122 666 
L 3122 134 
Q 2881 22 2623 -34 
Q 2366 -91 2075 -91 
Q 1284 -91 818 406 
Q 353 903 353 1747 
Q 353 2603 823 3093 
Q 1294 3584 2113 3584 
Q 2378 3584 2631 3529 
Q 2884 3475 3122 3366 
z
" transform="scale(0.015625)"/>
      <path id="DejaVuSans-72" d="M 2631 2963 
Q 2534 3019 2420 3045 
Q 2306 3072 2169 3072 
Q 1681 3072 1420 2755 
Q 1159 2438 1159 1844 
L 1159 0 
L 581 0 
L 581 3500 
L 1159 3500 
L 1159 2956 
Q 1341 3275 1631 3429 
Q 1922 3584 2338 3584 
Q 2397 3584 2469 3576 
Q 2541 3569 2628 3553 
L 2631 2963 
z
" transform="scale(0.015625)"/>
      <path id="DejaVuSans-69" d="M 603 3500 
L 1178 3500 
L 1178 0 
L 603 0 
L 603 3500 
z
M 603 4863 
L 1178 4863 
L 1178 4134 
L 603 4134 
L 603 4863 
z
" transform="scale(0.015625)"/>
      <path id="DejaVuSans-20" transform="scale(0.015625)"/>
      <path id="DejaVuSans-68" d="M 3513 2113 
L 3513 0 
L 2938 0 
L 2938 2094 
Q 2938 2591 2744 2837 
Q 2550 3084 2163 3084 
Q 1697 3084 1428 2787 
Q 1159 2491 1159 1978 
L 1159 0 
L 581 0 
L 581 4863 
L 1159 4863 
L 1159 2956 
Q 1366 3272 1645 3428 
Q 1925 3584 2291 3584 
Q 2894 3584 3203 3211 
Q 3513 2838 3513 2113 
z
" transform="scale(0.015625)"/>
      <path id="DejaVuSans-6f" d="M 1959 3097 
Q 1497 3097 1228 2736 
Q 959 2375 959 1747 
Q 959 1119 1226 758 
Q 1494 397 1959 397 
Q 2419 397 2687 759 
Q 2956 1122 2956 1747 
Q 2956 2369 2687 2733 
Q 2419 3097 1959 3097 
z
M 1959 3584 
Q 2709 3584 3137 3096 
Q 3566 2609 3566 1747 
Q 3566 888 3137 398 
Q 2709 -91 1959 -91 
Q 1206 -91 779 398 
Q 353 888 353 1747 
Q 353 2609 779 3096 
Q 1206 3584 1959 3584 
z
" transform="scale(0.015625)"/>
      <path id="DejaVuSans-79" d="M 2059 -325 
Q 1816 -950 1584 -1140 
Q 1353 -1331 966 -1331 
L 506 -1331 
L 506 -850 
L 844 -850 
Q 1081 -850 1212 -737 
Q 1344 -625 1503 -206 
L 1606 56 
L 191 3500 
L 800 3500 
L 1894 763 
L 2988 3500 
L 3597 3500 
L 2059 -325 
z
" transform="scale(0.015625)"/>
     </defs>
     <use xlink:href="#DejaVuSans-67"/>
     <use xlink:href="#DejaVuSans-65" x="63.476562"/>
     <use xlink:href="#DejaVuSans-74" x="125"/>
     <use xlink:href="#DejaVuSans-5f" x="164.208984"/>
     <use xlink:href="#DejaVuSans-73" x="214.208984"/>
     <use xlink:href="#DejaVuSans-75" x="266.308594"/>
     <use xlink:href="#DejaVuSans-62" x="329.6875"/>
     <use xlink:href="#DejaVuSans-73" x="393.164062"/>
     <use xlink:href="#DejaVuSans-63" x="445.263672"/>
     <use xlink:href="#DejaVuSans-72" x="500.244141"/>
     <use xlink:href="#DejaVuSans-69" x="541.357422"/>
     <use xlink:href="#DejaVuSans-62" x="569.140625"/>
     <use xlink:href="#DejaVuSans-65" x="632.617188"/>
     <use xlink:href="#DejaVuSans-20" x="694.140625"/>
     <use xlink:href="#DejaVuSans-68" x="725.927734"/>
     <use xlink:href="#DejaVuSans-69" x="789.306641"/>
     <use xlink:href="#DejaVuSans-73" x="817.089844"/>
     <use xlink:href="#DejaVuSans-74" x="869.189453"/>
     <use xlink:href="#DejaVuSans-6f" x="908.398438"/>
     <use xlink:href="#DejaVuSans-72" x="969.580078"/>
     <use xlink:href="#DejaVuSans-79" x="1010.693359"/>
    </g>
   </g>
   <g id="legend_1">
    <g id="line2d_37">
     <path d="M 815.08 328.498438 
L 825.08 328.498438 
L 835.08 328.498438 
" style="fill: none; stroke: #1f77b4; stroke-width: 1.5; stroke-linecap: square"/>
    </g>
    <g id="text_19">
     <!-- star -->
     <g style="fill: #a9a9a9" transform="translate(843.08 331.998438) scale(0.1 -0.1)">
      <defs>
       <path id="DejaVuSans-61" d="M 2194 1759 
Q 1497 1759 1228 1600 
Q 959 1441 959 1056 
Q 959 750 1161 570 
Q 1363 391 1709 391 
Q 2188 391 2477 730 
Q 2766 1069 2766 1631 
L 2766 1759 
L 2194 1759 
z
M 3341 1997 
L 3341 0 
L 2766 0 
L 2766 531 
Q 2569 213 2275 61 
Q 1981 -91 1556 -91 
Q 1019 -91 701 211 
Q 384 513 384 1019 
Q 384 1609 779 1909 
Q 1175 2209 1959 2209 
L 2766 2209 
L 2766 2266 
Q 2766 2663 2505 2880 
Q 2244 3097 1772 3097 
Q 1472 3097 1187 3025 
Q 903 2953 641 2809 
L 641 3341 
Q 956 3463 1253 3523 
Q 1550 3584 1831 3584 
Q 2591 3584 2966 3190 
Q 3341 2797 3341 1997 
z
" transform="scale(0.015625)"/>
      </defs>
      <use xlink:href="#DejaVuSans-73"/>
      <use xlink:href="#DejaVuSans-74" x="52.099609"/>
      <use xlink:href="#DejaVuSans-61" x="91.308594"/>
      <use xlink:href="#DejaVuSans-72" x="152.587891"/>
     </g>
    </g>
    <g id="line2d_38">
     <path d="M 815.08 343.176562 
L 825.08 343.176562 
L 835.08 343.176562 
" style="fill: none; stroke: #ff7f0e; stroke-width: 1.5; stroke-linecap: square"/>
    </g>
    <g id="text_20">
     <!-- fork -->
     <g style="fill: #a9a9a9" transform="translate(843.08 346.676562) scale(0.1 -0.1)">
      <defs>
       <path id="DejaVuSans-66" d="M 2375 4863 
L 2375 4384 
L 1825 4384 
Q 1516 4384 1395 4259 
Q 1275 4134 1275 3809 
L 1275 3500 
L 2222 3500 
L 2222 3053 
L 1275 3053 
L 1275 0 
L 697 0 
L 697 3053 
L 147 3053 
L 147 3500 
L 697 3500 
L 697 3744 
Q 697 4328 969 4595 
Q 1241 4863 1831 4863 
L 2375 4863 
z
" transform="scale(0.015625)"/>
       <path id="DejaVuSans-6b" d="M 581 4863 
L 1159 4863 
L 1159 1991 
L 2875 3500 
L 3609 3500 
L 1753 1863 
L 3688 0 
L 2938 0 
L 1159 1709 
L 1159 0 
L 581 0 
L 581 4863 
z
" transform="scale(0.015625)"/>
      </defs>
      <use xlink:href="#DejaVuSans-66"/>
      <use xlink:href="#DejaVuSans-6f" x="35.205078"/>
      <use xlink:href="#DejaVuSans-72" x="96.386719"/>
      <use xlink:href="#DejaVuSans-6b" x="137.5"/>
     </g>
    </g>
   </g>
  </g>
 </g>
 <defs>
  <clipPath id="p4e76c2275b">
   <rect x="108" y="43.2" width="669.6" height="277.2"/>
  </clipPath>
 </defs>
</svg>
